<?xml version="1.0" encoding="UTF-8"?>
<!DOCTYPE svg PUBLIC "-//W3C//DTD SVG 1.1//EN" "http://www.w3.org/Graphics/SVG/1.1/DTD/svg11.dtd">
<!-- Creator: CorelDRAW X6 -->
<svg xmlns="http://www.w3.org/2000/svg" xml:space="preserve" width="6.25in" height="5.66666in" version="1.1" style="shape-rendering:geometricPrecision; text-rendering:geometricPrecision; image-rendering:optimizeQuality; fill-rule:evenodd; clip-rule:evenodd"
viewBox="0 0 6250 5667"
 xmlns:xlink="http://www.w3.org/1999/xlink">
 <defs>
  <style type="text/css">
   <![CDATA[
    .fil0 {fill:red;fill-rule:nonzero}
    .fil1 {fill:white;fill-rule:nonzero}
   ]]>
  </style>
 </defs>
 <g id="Layer_x0020_1">
  <metadata id="CorelCorpID_0Corel-Layer"/>
  <polygon class="fil0" points="0,479 6250,479 6250,-7 0,-7 "/>
  <polygon class="fil1" points="360,259 139,479 0,479 0,403 143,259 0,115 0,-7 94,-7 "/>
  <polygon class="fil1" points="777,259 556,479 340,479 561,259 295,-7 511,-7 "/>
  <polygon class="fil1" points="1194,259 974,479 758,479 978,259 713,-7 929,-7 "/>
  <polygon class="fil1" points="1612,259 1391,479 1175,479 1396,259 1130,-7 1346,-7 "/>
  <polygon class="fil1" points="2029,259 1809,479 1593,479 1813,259 1548,-7 1764,-7 "/>
  <polygon class="fil1" points="2447,259 2226,479 2010,479 2230,259 1965,-7 2181,-7 "/>
  <polygon class="fil1" points="2864,259 2643,479 2427,479 2648,259 2382,-7 2598,-7 "/>
  <polygon class="fil1" points="3281,259 3061,479 2845,479 3065,259 2800,-7 3016,-7 "/>
  <polygon class="fil1" points="3699,259 3478,479 3262,479 3483,259 3217,-7 3433,-7 "/>
  <polygon class="fil1" points="4116,259 3896,479 3680,479 3900,259 3634,-7 3851,-7 "/>
  <polygon class="fil1" points="4533,259 4313,479 4097,479 4317,259 4052,-7 4268,-7 "/>
  <polygon class="fil1" points="4951,259 4730,479 4514,479 4735,259 4469,-7 4685,-7 "/>
  <polygon class="fil1" points="5368,259 5148,479 4932,479 5152,259 4887,-7 5103,-7 "/>
  <polygon class="fil1" points="5786,259 5565,479 5349,479 5570,259 5304,-7 5520,-7 "/>
  <polygon class="fil1" points="6203,259 5983,479 5767,479 5987,259 5721,-7 5938,-7 "/>
  <polygon class="fil1" points="6250,-7 6250,115 6128,-7 "/>
  <polygon class="fil1" points="6173,479 6250,402 6250,479 "/>
  <polygon class="fil0" points="0,1243 6250,1243 6250,757 0,757 "/>
  <polygon class="fil1" points="698,1000 455,1243 239,1243 482,1000 239,757 455,757 "/>
  <polygon class="fil1" points="310,1000 67,1243 0,1243 0,1094 93,1000 0,907 0,757 67,757 "/>
  <polygon class="fil1" points="6250,757 6250,907 6100,757 "/>
  <polygon class="fil1" points="6101,1243 6250,1094 6250,1243 "/>
  <polygon class="fil1" points="1093,1000 850,1243 634,1243 877,1000 634,757 850,757 "/>
  <polygon class="fil1" points="1488,1000 1245,1243 1029,1243 1272,1000 1029,757 1245,757 "/>
  <polygon class="fil1" points="1883,1000 1640,1243 1424,1243 1667,1000 1424,757 1640,757 "/>
  <polygon class="fil1" points="2278,1000 2035,1243 1819,1243 2062,1000 1819,757 2035,757 "/>
  <polygon class="fil1" points="4563,1000 4320,1243 4104,1243 4347,1000 4104,757 4320,757 "/>
  <polygon class="fil1" points="4958,1000 4715,1243 4499,1243 4742,1000 4499,757 4715,757 "/>
  <polygon class="fil1" points="5353,1000 5110,1243 4894,1243 5137,1000 4894,757 5110,757 "/>
  <polygon class="fil1" points="5748,1000 5505,1243 5289,1243 5532,1000 5289,757 5505,757 "/>
  <polygon class="fil1" points="6143,1000 5900,1243 5684,1243 5927,1000 5684,757 5900,757 "/>
  <path class="fil1" d="M2663 1004c0,-22 -4,-39 -13,-50 -9,-11 -22,-16 -40,-16l-19 0 0 136 15 0c20,0 35,-6 44,-17 9,-12 14,-29 14,-53zm68 -2c0,41 -11,72 -34,94 -22,22 -54,33 -94,33l-79 0 0 -243 84 0c39,0 69,10 90,30 21,20 32,49 32,87z"/>
  <path class="fil1" d="M2899 1029l-11 -40c-2,-9 -5,-20 -9,-34 -4,-14 -6,-24 -7,-30 -1,6 -3,15 -6,28 -3,13 -9,39 -20,77l52 0zm26 100l-12 -46 -79 0 -12 46 -72 0 79 -244 88 0 80 244 -72 0z"/>
  <path class="fil1" d="M3254 1128l-86 0 -89 -171 -1 0c2,27 3,48 3,62l0 110 -58 0 0 -243 86 0 89 169 1 0c-2,-25 -2,-44 -2,-59l0 -110 59 0 0 243z"/>
  <path class="fil1" d="M3404 986l105 0 0 131c-29,10 -60,15 -94,15 -38,0 -67,-11 -87,-33 -20,-22 -31,-53 -31,-93 0,-39 11,-70 34,-92 22,-22 54,-33 94,-33 15,0 30,1 43,4 14,3 25,7 36,11l-21 52c-18,-9 -37,-13 -58,-13 -19,0 -34,6 -45,19 -10,12 -16,30 -16,54 0,23 5,40 14,52 9,12 23,18 41,18 10,0 19,-1 27,-3l0 -38 -43 0 0 -51z"/>
  <polygon class="fil1" points="3704,1128 3559,1128 3559,885 3704,885 3704,938 3625,938 3625,976 3698,976 3698,1029 3625,1029 3625,1075 3704,1075 "/>
  <path class="fil1" d="M3812 990l12 0c23,0 34,-10 34,-30 0,-17 -11,-25 -34,-25l-13 0 0 56zm0 49l0 89 -66 0 0 -243 80 0c66,0 99,24 99,72 0,28 -14,50 -41,65l71 106 -75 0 -52 -89 -17 0z"/>
  <polygon class="fil0" points="0,2142 6250,2142 6250,1498 0,1498 "/>
  <polygon class="fil1" points="0,2063 6250,2063 6250,1577 0,1577 "/>
  <polygon class="fil1" points="4760,1577 4274,2063 1624,2063 2091,1577 "/>
  <polygon class="fil0" points="299,1498 0,1797 0,1581 83,1498 "/>
  <polygon class="fil0" points="694,1498 50,2142 0,2142 0,1976 478,1498 "/>
  <polygon class="fil0" points="6250,1976 6250,2063 6163,2063 6212,2013 6212,2013 "/>
  <polygon class="fil0" points="1089,1498 445,2142 228,2142 873,1498 "/>
  <polygon class="fil0" points="1483,1498 839,2142 623,2142 1267,1498 "/>
  <polygon class="fil0" points="1878,1498 1234,2142 1018,2142 1662,1498 "/>
  <polygon class="fil0" points="4970,1498 4326,2142 4109,2142 4753,1498 "/>
  <polygon class="fil0" points="5364,1498 4720,2142 4504,2142 5148,1498 "/>
  <polygon class="fil0" points="5759,1498 5115,2142 4899,2142 5543,1498 "/>
  <polygon class="fil0" points="6154,1498 5510,2142 5294,2142 5938,1498 "/>
  <polygon class="fil0" points="2273,1498 1629,2142 1413,2142 2057,1498 "/>
  <polygon class="fil0" points="6250,1581 6250,1797 5905,2142 5689,2142 5768,2063 "/>
  <path class="fil0" d="M2276 1837l-11 -40c-2,-9 -5,-20 -9,-34 -4,-14 -6,-24 -7,-30 -1,6 -3,15 -6,28 -3,13 -9,39 -20,77l52 0zm26 100l-12 -46 -79 0 -12 46 -72 0 79 -244 88 0 80 244 -72 0z"/>
  <polygon class="fil0" points="2507,1937 2442,1937 2442,1747 2382,1747 2382,1693 2567,1693 2567,1747 2507,1747 "/>
  <polygon class="fil0" points="2709,1937 2643,1937 2643,1747 2584,1747 2584,1693 2768,1693 2768,1747 2709,1747 "/>
  <polygon class="fil0" points="2947,1937 2803,1937 2803,1693 2947,1693 2947,1746 2869,1746 2869,1784 2941,1784 2941,1837 2869,1837 2869,1883 2947,1883 "/>
  <path class="fil0" d="M3222 1937l-86 0 -89 -171 -1 0c2,27 3,48 3,62l0 110 -58 0 0 -243 86 0 89 169 1 0c-2,-25 -2,-44 -2,-59l0 -110 59 0 0 243z"/>
  <polygon class="fil0" points="3382,1937 3316,1937 3316,1747 3256,1747 3256,1693 3441,1693 3441,1747 3382,1747 "/>
  <polygon class="fil0" points="3476,1937 3542,1937 3542,1693 3476,1693 "/>
  <path class="fil0" d="M3655 1815c0,47 16,71 49,71 17,0 29,-6 37,-17 8,-11 12,-29 12,-53 0,-24 -4,-42 -12,-54 -8,-12 -20,-17 -37,-17 -33,0 -49,24 -49,71zm167 0c0,41 -10,72 -30,93 -20,21 -49,32 -88,32 -38,0 -67,-11 -88,-32 -20,-21 -31,-53 -31,-94 0,-41 10,-71 30,-93 20,-21 50,-32 88,-32 39,0 68,11 88,32 20,21 30,52 30,93z"/>
  <path class="fil0" d="M4098 1937l-86 0 -89 -171 -2 0c2,27 3,48 3,62l0 110 -58 0 0 -243 86 0 89 169 1 0c-2,-25 -2,-44 -2,-59l0 -110 59 0 0 243z"/>
  <polygon class="fil1" points="0,3554 6250,3554 6250,3068 0,3068 "/>
  <polygon class="fil0" points="360,3334 139,3554 0,3554 0,3477 143,3334 0,3190 0,3068 94,3068 "/>
  <polygon class="fil0" points="777,3334 556,3554 340,3554 561,3334 295,3068 511,3068 "/>
  <polygon class="fil0" points="1194,3334 974,3554 758,3554 978,3334 713,3068 929,3068 "/>
  <polygon class="fil0" points="1612,3334 1391,3554 1175,3554 1396,3334 1130,3068 1346,3068 "/>
  <polygon class="fil0" points="2029,3334 1809,3554 1593,3554 1813,3334 1548,3068 1764,3068 "/>
  <polygon class="fil0" points="2447,3334 2226,3554 2010,3554 2230,3334 1965,3068 2181,3068 "/>
  <polygon class="fil0" points="2864,3334 2643,3554 2427,3554 2648,3334 2382,3068 2598,3068 "/>
  <polygon class="fil0" points="3281,3334 3061,3554 2845,3554 3065,3334 2800,3068 3016,3068 "/>
  <polygon class="fil0" points="3699,3334 3478,3554 3262,3554 3483,3334 3217,3068 3433,3068 "/>
  <polygon class="fil0" points="4116,3334 3896,3554 3680,3554 3900,3334 3634,3068 3851,3068 "/>
  <polygon class="fil0" points="4533,3334 4313,3554 4097,3554 4317,3334 4052,3068 4268,3068 "/>
  <polygon class="fil0" points="4951,3334 4730,3554 4514,3554 4735,3334 4469,3068 4685,3068 "/>
  <polygon class="fil0" points="5368,3334 5148,3554 4932,3554 5152,3334 4887,3068 5103,3068 "/>
  <polygon class="fil0" points="5786,3334 5565,3554 5349,3554 5570,3334 5304,3068 5520,3068 "/>
  <polygon class="fil0" points="6203,3334 5983,3554 5767,3554 5987,3334 5721,3068 5938,3068 "/>
  <polygon class="fil0" points="6173,3554 6250,3477 6250,3554 "/>
  <path class="fil1" d="M502 3208l0 194c0,30 -24,55 -55,55l-447 0 0 -303 447 0c30,0 55,25 55,55z"/>
  <path class="fil0" d="M447 3120l-447 0 0 34 447 0c30,0 55,25 55,55l0 194c0,30 -24,55 -55,55l-447 0 0 34 447 0c49,0 88,-40 88,-88l0 -194c0,-49 -40,-88 -88,-88z"/>
  <path class="fil0" d="M87 3345c-6,8 -15,13 -27,13 -24,0 -36,-17 -36,-52 0,-35 12,-52 36,-52 12,0 21,4 27,13 6,8 9,22 9,39 0,18 -3,31 -9,39zm38 -108c-15,-16 -36,-23 -65,-23 -25,0 -45,6 -60,19l0 145c15,13 35,19 60,19 28,0 50,-8 65,-23 15,-16 22,-38 22,-68 0,-30 -7,-53 -22,-68z"/>
  <path class="fil0" d="M306 3217l0 81c0,11 1,25 2,43l-1 0 -65 -124 -63 0 0 178 43 0 0 -81c0,-10 -1,-25 -2,-45l1 0 65 126 63 0 0 -178 -43 0z"/>
  <path class="fil1" d="M2530 3457l-1333 0c-30,0 -55,-24 -55,-55l0 -194c0,-30 24,-55 55,-55l1333 0c30,0 55,24 55,55l0 194c0,30 -24,55 -55,55z"/>
  <path class="fil0" d="M2530 3120l-1333 0c-49,0 -88,40 -88,88l0 194c0,49 40,88 88,88l1333 0c49,0 88,-40 88,-88l0 -194c0,-49 -40,-88 -88,-88l0 0zm0 34c30,0 55,24 55,55l0 194c0,30 -24,55 -55,55l-1333 0c-30,0 -55,-24 -55,-55l0 -194c0,-30 24,-55 55,-55l1333 0 0 0z"/>
  <path class="fil0" d="M1375 3254c-11,0 -20,5 -27,14 -6,9 -10,22 -10,39 0,34 13,52 39,52 8,0 16,-1 23,-3 7,-2 15,-5 22,-8l0 41c-15,7 -32,10 -51,10 -27,0 -48,-8 -62,-23 -14,-16 -22,-38 -22,-68 0,-18 3,-35 10,-49 7,-14 17,-25 30,-32 13,-8 28,-11 46,-11 19,0 38,4 55,13l-15 38c-7,-3 -13,-6 -20,-8 -7,-2 -14,-3 -21,-3z"/>
  <path class="fil0" d="M1548 3322l-8 -29c-2,-7 -4,-15 -7,-25 -3,-10 -4,-18 -5,-22 -1,4 -2,11 -4,21 -2,10 -7,28 -14,56l38 0zm19 73l-9 -33 -58 0 -9 33 -53 0 58 -179 64 0 59 179 -53 0z"/>
  <path class="fil0" d="M1791 3217l0 107c0,23 -7,41 -20,54 -13,13 -32,19 -57,19 -24,0 -43,-6 -56,-19 -13,-12 -20,-30 -20,-54l0 -109 48 0 0 105c0,13 2,22 7,27 5,6 12,9 21,9 10,0 17,-3 21,-8 4,-6 7,-15 7,-28l0 -104 48 0z"/>
  <polygon class="fil0" points="1907,3395 1859,3395 1859,3256 1815,3256 1815,3217 1950,3217 1950,3256 1907,3256 "/>
  <polygon class="fil0" points="1976,3395 2024,3395 2024,3217 1976,3217 "/>
  <path class="fil0" d="M2107 3306c0,35 12,52 36,52 12,0 21,-4 27,-13 6,-8 9,-21 9,-39 0,-18 -3,-31 -9,-39 -6,-9 -15,-13 -27,-13 -24,0 -36,17 -36,52zm123 0c0,30 -7,53 -22,68 -15,16 -36,23 -65,23 -28,0 -49,-8 -64,-24 -15,-16 -22,-39 -22,-69 0,-30 7,-52 22,-68 15,-16 36,-24 65,-24 28,0 50,8 65,23 15,16 22,38 22,68z"/>
  <path class="fil0" d="M2432 3395l-63 0 -65 -126 -1 0c2,20 2,35 2,45l0 80 -43 0 0 -178 63 0 65 124 1 0c-1,-18 -2,-32 -2,-43l0 -81 43 0 0 178z"/>
  <path class="fil1" d="M4614 3457l-1333 0c-30,0 -55,-24 -55,-55l0 -194c0,-30 24,-55 55,-55l1333 0c30,0 55,24 55,55l0 194c0,30 -24,55 -55,55z"/>
  <path class="fil0" d="M4614 3120l-1333 0c-49,0 -88,40 -88,88l0 194c0,49 40,88 88,88l1333 0c49,0 88,-40 88,-88l0 -194c0,-49 -40,-88 -88,-88l0 0zm0 34c30,0 55,24 55,55l0 194c0,30 -24,55 -55,55l-1333 0c-30,0 -55,-24 -55,-55l0 -194c0,-30 24,-55 55,-55l1333 0 0 0z"/>
  <path class="fil0" d="M3458 3254c-11,0 -20,5 -27,14 -6,9 -10,22 -10,39 0,34 13,52 39,52 8,0 16,-1 23,-3 7,-2 15,-5 22,-8l0 41c-15,7 -32,10 -51,10 -27,0 -48,-8 -62,-23 -14,-16 -22,-38 -22,-68 0,-18 3,-35 10,-49 7,-14 17,-25 30,-32 13,-8 28,-11 46,-11 19,0 38,4 55,13l-15 38c-7,-3 -13,-6 -20,-8 -7,-2 -14,-3 -21,-3z"/>
  <path class="fil0" d="M3631 3322l-8 -29c-2,-7 -4,-15 -7,-25 -3,-10 -4,-18 -5,-22 -1,4 -2,11 -4,21 -2,10 -7,28 -14,56l38 0zm19 73l-9 -33 -58 0 -9 33 -53 0 58 -179 64 0 59 179 -53 0z"/>
  <path class="fil0" d="M3874 3217l0 107c0,23 -7,41 -20,54 -13,13 -32,19 -57,19 -24,0 -43,-6 -56,-19 -13,-12 -20,-30 -20,-54l0 -109 48 0 0 105c0,13 2,22 7,27 5,6 12,9 21,9 10,0 17,-3 21,-8 4,-6 7,-15 7,-28l0 -104 48 0z"/>
  <polygon class="fil0" points="3990,3395 3942,3395 3942,3256 3898,3256 3898,3217 4034,3217 4034,3256 3990,3256 "/>
  <polygon class="fil0" points="4059,3395 4108,3395 4108,3217 4059,3217 "/>
  <path class="fil0" d="M4190 3306c0,35 12,52 36,52 12,0 21,-4 27,-13 6,-8 9,-21 9,-39 0,-18 -3,-31 -9,-39 -6,-9 -15,-13 -27,-13 -24,0 -36,17 -36,52zm123 0c0,30 -7,53 -22,68 -15,16 -36,23 -65,23 -28,0 -49,-8 -64,-24 -15,-16 -22,-39 -22,-69 0,-30 7,-52 22,-68 15,-16 36,-24 65,-24 28,0 50,8 65,23 15,16 22,38 22,68z"/>
  <path class="fil0" d="M4515 3395l-63 0 -65 -126 -1 0c2,20 2,35 2,45l0 80 -43 0 0 -178 63 0 65 124 1 0c-1,-18 -2,-32 -2,-43l0 -81 43 0 0 178z"/>
  <path class="fil1" d="M6250 3154l0 303 -886 0c-30,0 -55,-24 -55,-55l0 -194c0,-30 24,-55 55,-55l886 0z"/>
  <path class="fil0" d="M5364 3154l886 0 0 -34 -886 0c-49,0 -88,40 -88,88l0 194c0,49 40,88 88,88l886 0 0 -34 -886 0c-30,0 -55,-24 -55,-55l0 -194c0,-30 24,-55 55,-55z"/>
  <path class="fil0" d="M5544 3358c-26,0 -39,-17 -39,-52 0,-17 3,-29 10,-39 7,-9 15,-14 27,-14 8,0 15,1 21,3 7,2 13,5 20,8l15 -38c-18,-8 -36,-13 -55,-13 -18,0 -33,4 -46,11 -13,8 -23,18 -30,32 -7,14 -10,30 -10,49 0,29 7,52 22,68 14,16 35,23 62,23 19,0 36,-3 51,-10l0 -41c-8,3 -15,6 -22,8 -7,2 -15,3 -23,3z"/>
  <path class="fil0" d="M5677 3322c8,-28 12,-47 14,-56 2,-10 3,-16 4,-21 1,4 3,12 5,22 3,10 5,19 7,25l8 29 -38 0zm51 -106l-64 0 -58 179 53 0 9 -33 58 0 9 33 53 0 -59 -179z"/>
  <path class="fil0" d="M5909 3217l0 104c0,13 -2,22 -7,28 -4,6 -12,8 -21,8 -9,0 -16,-3 -21,-9 -5,-6 -7,-15 -7,-27l0 -105 -48 0 0 108c0,23 7,41 20,54 13,12 32,19 56,19 25,0 44,-6 57,-19 13,-13 20,-31 20,-54l0 -107 -48 0z"/>
  <polygon class="fil0" points="5982,3217 5982,3256 6025,3256 6025,3395 6074,3395 6074,3256 6117,3256 6117,3217 "/>
  <polygon class="fil0" points="6143,3395 6191,3395 6191,3217 6143,3217 "/>
  <path class="fil0" d="M6250 3233l0 145c-2,-1 -3,-3 -5,-4 -15,-16 -23,-38 -23,-68 0,-30 8,-53 22,-68 2,-2 3,-3 5,-4z"/>
  <polygon class="fil0" points="0,5667 6250,5667 6250,5023 0,5023 "/>
  <polygon class="fil1" points="0,5588 6250,5588 6250,5102 0,5102 "/>
  <path class="fil0" d="M0 5280l0 103 20 0 6 -103 -26 0zm19 126c-4,-4 -9,-6 -17,-6 -1,0 -1,0 -2,0l0 42c1,0 1,0 2,0 7,0 13,-2 17,-6 4,-4 6,-9 6,-15 0,-7 -2,-12 -6,-15z"/>
  <path class="fil0" d="M128 5494l-128 0 0 -310c13,1 26,7 33,20l130 230c15,27 -4,60 -35,60z"/>
  <path class="fil1" d="M19 5406c-4,-4 -9,-6 -17,-6 -1,0 -1,0 -2,0l0 42c1,0 1,0 2,0 7,0 13,-2 17,-6 4,-4 6,-9 6,-15 0,-7 -2,-12 -6,-15zm-19 -126l0 103 20 0 6 -103 -26 0z"/>
  <path class="fil1" d="M180 5424l-130 -230c-10,-18 -29,-30 -50,-30l0 40c4,0 11,2 15,10l130 230c5,9 2,17 0,20 -2,3 -7,10 -17,10l-128 0 0 40 128 0c22,0 41,-11 52,-30 11,-19 11,-41 1,-60z"/>
  <path class="fil0" d="M1541 5422c0,-7 2,-12 6,-15 4,-4 10,-6 17,-6 7,0 13,2 17,6 4,4 6,9 6,15 0,7 -2,12 -6,15 -4,4 -10,6 -17,6 -7,0 -13,-2 -17,-6 -4,-4 -6,-9 -6,-15zm41 -38l-36 0 -6 -103 47 0 -6 103z"/>
  <path class="fil0" d="M1690 5494l-259 0c-31,0 -50,-33 -35,-60l130 -230c15,-27 54,-27 70,0l130 230c15,27 -4,60 -35,60z"/>
  <path class="fil1" d="M1541 5422c0,-7 2,-12 6,-15 4,-4 10,-6 17,-6 7,0 13,2 17,6 4,4 6,9 6,15 0,7 -2,12 -6,15 -4,4 -10,6 -17,6 -7,0 -13,-2 -17,-6 -4,-4 -6,-9 -6,-15zm41 -38l-36 0 -6 -103 47 0 -6 103z"/>
  <path class="fil1" d="M1560 5204c-4,0 -12,1 -17,10l-130 230c-5,9 -2,17 0,20 2,3 7,10 17,10l259 0c10,0 15,-7 17,-10 2,-3 5,-11 0,-20l-130 -230c-5,-9 -14,-10 -17,-10zm130 310l-259 0c-22,0 -41,-11 -52,-30 -11,-19 -11,-41 0,-60l130 -230c11,-19 30,-31 52,-31l0 0c22,0 41,11 52,31l130 230c11,19 10,41 0,60 -11,19 -30,30 -52,30z"/>
  <path class="fil0" d="M3104 5422c0,-7 2,-12 6,-15 4,-4 10,-6 17,-6 7,0 13,2 17,6 4,4 6,9 6,15 0,7 -2,12 -6,15 -4,4 -10,6 -17,6 -7,0 -13,-2 -17,-6 -4,-4 -6,-9 -6,-15zm41 -38l-36 0 -6 -103 47 0 -6 103z"/>
  <path class="fil0" d="M3253 5494l-259 0c-31,0 -50,-33 -35,-60l130 -230c15,-27 54,-27 70,0l130 230c15,27 -4,60 -35,60z"/>
  <path class="fil1" d="M3104 5422c0,-7 2,-12 6,-15 4,-4 10,-6 17,-6 7,0 13,2 17,6 4,4 6,9 6,15 0,7 -2,12 -6,15 -4,4 -10,6 -17,6 -7,0 -13,-2 -17,-6 -4,-4 -6,-9 -6,-15zm41 -38l-36 0 -6 -103 47 0 -6 103z"/>
  <path class="fil1" d="M3123 5204c-4,0 -12,1 -17,10l-130 230c-5,9 -2,17 0,20 2,3 7,10 17,10l259 0c10,0 15,-7 17,-10 2,-3 5,-11 0,-20l-130 -230c-5,-9 -14,-10 -17,-10zm130 310l-259 0c-22,0 -41,-11 -52,-30 -11,-19 -11,-41 0,-60l130 -230c11,-19 30,-31 52,-31l0 0c22,0 41,11 52,31l130 230c11,19 10,41 0,60 -11,19 -30,30 -52,30z"/>
  <path class="fil0" d="M4666 5422c0,-7 2,-12 6,-15 4,-4 10,-6 17,-6 7,0 13,2 17,6 4,4 6,9 6,15 0,7 -2,12 -6,15 -4,4 -10,6 -17,6 -7,0 -13,-2 -17,-6 -4,-4 -6,-9 -6,-15zm41 -38l-36 0 -6 -103 47 0 -6 103z"/>
  <path class="fil0" d="M4815 5494l-259 0c-31,0 -50,-33 -35,-60l130 -230c15,-27 54,-27 70,0l130 230c15,27 -4,60 -35,60z"/>
  <path class="fil1" d="M4666 5422c0,-7 2,-12 6,-15 4,-4 10,-6 17,-6 7,0 13,2 17,6 4,4 6,9 6,15 0,7 -2,12 -6,15 -4,4 -10,6 -17,6 -7,0 -13,-2 -17,-6 -4,-4 -6,-9 -6,-15zm41 -38l-36 0 -6 -103 47 0 -6 103z"/>
  <path class="fil1" d="M4685 5204c-4,0 -12,1 -17,10l-130 230c-5,9 -2,17 0,20 2,3 7,10 17,10l259 0c10,0 15,-7 17,-10 2,-3 5,-11 0,-20l-130 -230c-5,-9 -14,-10 -17,-10zm130 310l-259 0c-22,0 -41,-11 -52,-30 -11,-19 -11,-41 0,-60l130 -230c11,-19 30,-31 52,-31l0 0c22,0 41,11 52,31l130 230c11,19 10,41 0,60 -11,19 -30,30 -52,30z"/>
  <path class="fil0" d="M6250 5184l0 310 -132 0c-31,0 -50,-33 -35,-60l130 -230c8,-14 23,-21 37,-20z"/>
  <path class="fil1" d="M6228 5280l6 103 16 0 0 -103 -22 0zm6 126c-4,4 -6,9 -6,15 0,7 2,12 6,15 4,3 9,5 15,5l0 -42c-7,0 -12,2 -15,5z"/>
  <path class="fil1" d="M6231 5214c5,-9 14,-10 17,-10 1,0 1,0 2,0l0 -40c-1,0 -1,0 -2,0 -22,0 -41,12 -52,31l-130 230c-11,19 -10,41 0,60 11,19 30,30 52,30l132 0 0 -40 -132 0c-10,0 -16,-7 -17,-10 -2,-3 -5,-11 0,-20l130 -230z"/>
  <path class="fil0" d="M343 5289c-10,0 -18,4 -24,13 -6,8 -9,20 -9,35 0,31 12,46 35,46 7,0 14,-1 21,-3 7,-2 13,-4 20,-7l0 37c-13,6 -29,9 -45,9 -24,0 -43,-7 -56,-21 -13,-14 -19,-34 -19,-61 0,-17 3,-31 9,-44 6,-13 15,-22 27,-29 12,-7 26,-10 41,-10 17,0 34,4 50,11l-13 34c-6,-3 -12,-5 -18,-7 -6,-2 -12,-3 -19,-3z"/>
  <path class="fil0" d="M499 5350l-7 -26c-2,-6 -4,-13 -6,-23 -2,-9 -4,-16 -5,-20 -1,4 -2,10 -4,18 -2,9 -6,25 -13,51l34 0zm17 66l-8 -30 -52 0 -8 30 -48 0 52 -161 58 0 53 161 -47 0z"/>
  <path class="fil0" d="M717 5256l0 97c0,21 -6,37 -18,49 -12,12 -29,17 -51,17 -22,0 -39,-6 -50,-17 -12,-11 -18,-27 -18,-48l0 -98 44 0 0 94c0,11 2,20 6,25 4,5 10,8 19,8 9,0 15,-3 19,-8 4,-5 6,-13 6,-25l0 -94 43 0z"/>
  <polygon class="fil0" points="821,5416 778,5416 778,5291 739,5291 739,5256 860,5256 860,5291 821,5291 "/>
  <polygon class="fil0" points="883,5416 927,5416 927,5256 883,5256 "/>
  <path class="fil0" d="M1001 5335c0,31 11,47 32,47 11,0 19,-4 24,-11 5,-8 8,-19 8,-35 0,-16 -3,-28 -8,-35 -5,-8 -13,-11 -24,-11 -22,0 -33,16 -33,47zm110 0c0,27 -7,47 -20,62 -13,14 -33,21 -58,21 -25,0 -44,-7 -58,-21 -13,-14 -20,-35 -20,-62 0,-27 7,-47 20,-61 13,-14 33,-21 58,-21 26,0 45,7 58,21 13,14 20,34 20,62z"/>
  <path class="fil0" d="M1293 5416l-57 0 -59 -113 -1 0c1,18 2,31 2,41l0 72 -38 0 0 -160 57 0 58 111 1 0c-1,-16 -2,-29 -2,-39l0 -73 39 0 0 160z"/>
  <path class="fil0" d="M1897 5289c-10,0 -18,4 -24,13 -6,8 -9,20 -9,35 0,31 12,46 35,46 7,0 14,-1 21,-3 7,-2 13,-4 20,-7l0 37c-13,6 -29,9 -45,9 -24,0 -43,-7 -56,-21 -13,-14 -19,-34 -19,-61 0,-17 3,-31 9,-44 6,-13 15,-22 27,-29 12,-7 26,-10 41,-10 17,0 34,4 50,11l-13 34c-6,-3 -12,-5 -18,-7 -6,-2 -12,-3 -19,-3z"/>
  <path class="fil0" d="M2053 5350l-7 -26c-2,-6 -4,-13 -6,-23 -2,-9 -4,-16 -5,-20 -1,4 -2,10 -4,18 -2,9 -6,25 -13,51l34 0zm17 66l-8 -30 -52 0 -8 30 -48 0 52 -161 58 0 53 161 -47 0z"/>
  <path class="fil0" d="M2271 5256l0 97c0,21 -6,37 -18,49 -12,12 -29,17 -51,17 -22,0 -39,-6 -50,-17 -12,-11 -18,-27 -18,-48l0 -98 44 0 0 94c0,11 2,20 6,25 4,5 11,8 19,8 9,0 15,-3 19,-8 4,-5 6,-13 6,-25l0 -94 43 0z"/>
  <polygon class="fil0" points="2375,5416 2332,5416 2332,5291 2293,5291 2293,5256 2414,5256 2414,5291 2375,5291 "/>
  <polygon class="fil0" points="2437,5416 2481,5416 2481,5256 2437,5256 "/>
  <path class="fil0" d="M2555 5335c0,31 11,47 32,47 11,0 19,-4 24,-11 5,-8 8,-19 8,-35 0,-16 -3,-28 -8,-35 -5,-8 -13,-11 -24,-11 -22,0 -33,16 -33,47zm110 0c0,27 -7,47 -20,62 -13,14 -33,21 -58,21 -25,0 -44,-7 -58,-21 -13,-14 -20,-35 -20,-62 0,-27 7,-47 20,-61 13,-14 33,-21 58,-21 26,0 45,7 58,21 13,14 20,34 20,62z"/>
  <path class="fil0" d="M2847 5416l-57 0 -59 -113 -1 0c1,18 2,31 2,41l0 72 -38 0 0 -160 57 0 58 111 1 0c-1,-16 -2,-29 -2,-39l0 -73 39 0 0 160z"/>
  <path class="fil0" d="M3451 5289c-10,0 -18,4 -24,13 -6,8 -9,20 -9,35 0,31 12,46 35,46 7,0 14,-1 21,-3 7,-2 13,-4 20,-7l0 37c-13,6 -29,9 -45,9 -24,0 -43,-7 -56,-21 -13,-14 -19,-34 -19,-61 0,-17 3,-31 9,-44 6,-13 15,-22 27,-29 12,-7 26,-10 41,-10 17,0 34,4 50,11l-13 34c-6,-3 -12,-5 -18,-7 -6,-2 -12,-3 -19,-3z"/>
  <path class="fil0" d="M3607 5350l-7 -26c-2,-6 -4,-13 -6,-23 -2,-9 -4,-16 -5,-20 -1,4 -2,10 -4,18 -2,9 -6,25 -13,51l34 0zm17 66l-8 -30 -52 0 -8 30 -48 0 52 -161 58 0 53 161 -47 0z"/>
  <path class="fil0" d="M3825 5256l0 97c0,21 -6,37 -18,49 -12,12 -29,17 -51,17 -22,0 -39,-6 -50,-17 -12,-11 -18,-27 -18,-48l0 -98 44 0 0 94c0,11 2,20 6,25 4,5 11,8 19,8 9,0 15,-3 19,-8 4,-5 6,-13 6,-25l0 -94 43 0z"/>
  <polygon class="fil0" points="3929,5416 3886,5416 3886,5291 3847,5291 3847,5256 3968,5256 3968,5291 3929,5291 "/>
  <polygon class="fil0" points="3991,5416 4035,5416 4035,5256 3991,5256 "/>
  <path class="fil0" d="M4109 5335c0,31 11,47 32,47 11,0 19,-4 24,-11 5,-8 8,-19 8,-35 0,-16 -3,-28 -8,-35 -5,-8 -13,-11 -24,-11 -22,0 -33,16 -33,47zm110 0c0,27 -7,47 -20,62 -13,14 -33,21 -58,21 -25,0 -44,-7 -58,-21 -13,-14 -20,-35 -20,-62 0,-27 7,-47 20,-61 13,-14 33,-21 58,-21 26,0 45,7 58,21 13,14 20,34 20,62z"/>
  <path class="fil0" d="M4401 5416l-57 0 -59 -113 -1 0c1,18 2,31 2,41l0 72 -38 0 0 -160 57 0 58 111 1 0c-1,-16 -2,-29 -2,-39l0 -73 39 0 0 160z"/>
  <path class="fil0" d="M5005 5289c-10,0 -18,4 -24,13 -6,8 -9,20 -9,35 0,31 12,46 35,46 7,0 14,-1 21,-3 7,-2 13,-4 20,-7l0 37c-13,6 -29,9 -45,9 -24,0 -43,-7 -56,-21 -13,-14 -19,-34 -19,-61 0,-17 3,-31 9,-44 6,-13 15,-22 27,-29 12,-7 26,-10 41,-10 17,0 34,4 50,11l-13 34c-6,-3 -12,-5 -18,-7 -6,-2 -12,-3 -19,-3z"/>
  <path class="fil0" d="M5161 5350l-7 -26c-2,-6 -4,-13 -6,-23 -2,-9 -4,-16 -5,-20 -1,4 -2,10 -4,18 -2,9 -6,25 -13,51l34 0zm17 66l-8 -30 -52 0 -8 30 -48 0 52 -161 58 0 53 161 -47 0z"/>
  <path class="fil0" d="M5379 5256l0 97c0,21 -6,37 -18,49 -12,12 -29,17 -51,17 -22,0 -39,-6 -50,-17 -12,-11 -18,-27 -18,-48l0 -98 44 0 0 94c0,11 2,20 6,25 4,5 10,8 19,8 9,0 15,-3 19,-8 4,-5 6,-13 6,-25l0 -94 43 0z"/>
  <polygon class="fil0" points="5483,5416 5440,5416 5440,5291 5401,5291 5401,5256 5522,5256 5522,5291 5483,5291 "/>
  <polygon class="fil0" points="5545,5416 5589,5416 5589,5256 5545,5256 "/>
  <path class="fil0" d="M5663 5335c0,31 11,47 32,47 11,0 19,-4 24,-11 5,-8 8,-19 8,-35 0,-16 -3,-28 -8,-35 -5,-8 -13,-11 -24,-11 -22,0 -33,16 -33,47zm110 0c0,27 -7,47 -20,62 -13,14 -33,21 -58,21 -25,0 -44,-7 -58,-21 -13,-14 -20,-35 -20,-62 0,-27 7,-47 20,-61 13,-14 33,-21 58,-21 26,0 45,7 58,21 13,14 20,34 20,62z"/>
  <path class="fil0" d="M5955 5416l-57 0 -59 -113 -1 0c1,18 2,31 2,41l0 72 -38 0 0 -160 57 0 58 111 1 0c-1,-16 -2,-29 -2,-39l0 -73 39 0 0 160z"/>
  <polygon class="fil0" points="0,4753 6250,4753 6250,3803 0,3803 "/>
  <polygon class="fil1" points="0,4521 6250,4521 6250,4035 0,4035 "/>
  <polygon class="fil0" points="360,4300 139,4521 0,4521 0,4444 143,4300 0,4157 0,4035 94,4035 "/>
  <polygon class="fil0" points="777,4300 556,4521 340,4521 561,4300 295,4035 511,4035 "/>
  <polygon class="fil0" points="1194,4300 974,4521 758,4521 978,4300 713,4035 929,4035 "/>
  <polygon class="fil0" points="1612,4300 1391,4521 1175,4521 1396,4300 1130,4035 1346,4035 "/>
  <polygon class="fil0" points="2029,4300 1809,4521 1593,4521 1813,4300 1548,4035 1764,4035 "/>
  <polygon class="fil0" points="2447,4300 2226,4521 2010,4521 2230,4300 1965,4035 2181,4035 "/>
  <polygon class="fil0" points="2864,4300 2643,4521 2427,4521 2648,4300 2382,4035 2598,4035 "/>
  <polygon class="fil0" points="3281,4300 3061,4521 2845,4521 3065,4300 2800,4035 3016,4035 "/>
  <polygon class="fil0" points="3699,4300 3478,4521 3262,4521 3483,4300 3217,4035 3433,4035 "/>
  <polygon class="fil0" points="4116,4300 3896,4521 3680,4521 3900,4300 3634,4035 3851,4035 "/>
  <polygon class="fil0" points="4533,4300 4313,4521 4097,4521 4317,4300 4052,4035 4268,4035 "/>
  <polygon class="fil0" points="4951,4300 4730,4521 4514,4521 4735,4300 4469,4035 4685,4035 "/>
  <polygon class="fil0" points="5368,4300 5148,4521 4932,4521 5152,4300 4887,4035 5103,4035 "/>
  <polygon class="fil0" points="5786,4300 5565,4521 5349,4521 5570,4300 5304,4035 5520,4035 "/>
  <polygon class="fil0" points="6203,4300 5983,4521 5767,4521 5987,4300 5721,4035 5938,4035 "/>
  <polygon class="fil0" points="6250,4035 6250,4157 6128,4035 "/>
  <polygon class="fil0" points="6173,4521 6250,4444 6250,4521 "/>
  <path class="fil1" d="M0 4627l0 14c0,-2 0,-5 0,-7 0,-2 0,-5 0,-7z"/>
  <path class="fil1" d="M82 4647l-5 -20c-1,-4 -3,-10 -4,-17 -2,-7 -3,-12 -3,-15 0,3 -1,7 -3,14 -1,6 -5,19 -10,38l25 0zm13 49l-6 -22 -39 0 -6 22 -35 0 39 -119 43 0 39 119 -35 0z"/>
  <path class="fil1" d="M256 4696l-42 0 -43 -84 -1 0c1,13 2,23 2,30l0 54 -28 0 0 -119 42 0 43 83 0 0c-1,-12 -1,-22 -1,-29l0 -54 29 0 0 119z"/>
  <path class="fil1" d="M329 4626l51 0 0 64c-14,5 -29,7 -46,7 -18,0 -33,-5 -43,-16 -10,-11 -15,-26 -15,-45 0,-19 5,-34 16,-45 11,-11 26,-16 46,-16 7,0 15,1 21,2 7,1 12,3 17,5l-10 25c-9,-4 -18,-6 -28,-6 -9,0 -17,3 -22,9 -5,6 -8,15 -8,26 0,11 2,20 7,25 5,6 11,9 20,9 5,0 9,0 13,-1l0 -19 -21 0 0 -25z"/>
  <polygon class="fil1" points="476,4696 405,4696 405,4577 476,4577 476,4602 437,4602 437,4621 473,4621 473,4647 437,4647 437,4669 476,4669 "/>
  <path class="fil1" d="M529 4628l6 0c11,0 17,-5 17,-15 0,-8 -6,-12 -17,-12l-6 0 0 27zm0 24l0 43 -32 0 0 -119 39 0c32,0 49,12 49,35 0,14 -7,24 -20,32l35 52 -36 0 -25 -43 -8 0z"/>
  <path class="fil1" d="M1009 4635c0,-11 -2,-19 -6,-24 -4,-5 -11,-8 -20,-8l-9 0 0 67 7 0c10,0 17,-3 21,-9 5,-6 7,-14 7,-26zm33 -1c0,20 -5,35 -16,46 -11,11 -26,16 -46,16l-38 0 0 -119 41 0c19,0 34,5 44,15 10,10 16,24 16,42z"/>
  <path class="fil1" d="M1124 4647l-5 -20c-1,-4 -3,-10 -4,-17 -2,-7 -3,-12 -3,-15 0,3 -1,7 -3,14 -1,6 -5,19 -10,38l25 0zm13 49l-6 -22 -39 0 -6 22 -35 0 39 -119 43 0 39 119 -35 0z"/>
  <path class="fil1" d="M1298 4696l-42 0 -43 -84 -1 0c1,13 2,23 2,30l0 54 -28 0 0 -119 42 0 43 83 0 0c-1,-12 -1,-22 -1,-29l0 -54 29 0 0 119z"/>
  <path class="fil1" d="M1371 4626l51 0 0 64c-14,5 -29,7 -46,7 -18,0 -33,-5 -43,-16 -10,-11 -15,-26 -15,-45 0,-19 5,-34 16,-45 11,-11 26,-16 46,-16 7,0 15,1 21,2 7,1 12,3 17,5l-10 25c-9,-4 -18,-6 -28,-6 -9,0 -17,3 -22,9 -5,6 -8,15 -8,26 0,11 2,20 7,25 5,6 11,9 20,9 5,0 9,0 13,-1l0 -19 -21 0 0 -25z"/>
  <polygon class="fil1" points="1517,4696 1447,4696 1447,4577 1517,4577 1517,4602 1479,4602 1479,4621 1514,4621 1514,4647 1479,4647 1479,4669 1517,4669 "/>
  <path class="fil1" d="M1570 4628l6 0c11,0 17,-5 17,-15 0,-8 -6,-12 -17,-12l-6 0 0 27zm0 24l0 43 -32 0 0 -119 39 0c32,0 49,12 49,35 0,14 -7,24 -20,32l35 52 -36 0 -25 -43 -8 0z"/>
  <path class="fil1" d="M2050 4635c0,-11 -2,-19 -6,-24 -4,-5 -11,-8 -20,-8l-9 0 0 67 7 0c10,0 17,-3 21,-9 5,-6 7,-14 7,-26zm33 -1c0,20 -5,35 -16,46 -11,11 -26,16 -46,16l-38 0 0 -119 41 0c19,0 34,5 44,15 10,10 16,24 16,42z"/>
  <path class="fil1" d="M2165 4647l-5 -20c-1,-4 -3,-10 -4,-17 -2,-7 -3,-12 -3,-15 0,3 -1,7 -3,14 -1,6 -5,19 -10,38l25 0zm13 49l-6 -22 -39 0 -6 22 -35 0 39 -119 43 0 39 119 -35 0z"/>
  <path class="fil1" d="M2339 4696l-42 0 -43 -84 -1 0c1,13 2,23 2,30l0 54 -28 0 0 -119 42 0 43 83 0 0c-1,-12 -1,-22 -1,-29l0 -54 29 0 0 119z"/>
  <path class="fil1" d="M2413 4626l51 0 0 64c-14,5 -29,7 -46,7 -18,0 -33,-5 -43,-16 -10,-11 -15,-26 -15,-45 0,-19 5,-34 16,-45 11,-11 26,-16 46,-16 7,0 15,1 21,2 7,1 12,3 17,5l-10 25c-9,-4 -18,-6 -28,-6 -9,0 -17,3 -22,9 -5,6 -8,15 -8,26 0,11 2,20 7,25 5,6 11,9 20,9 5,0 9,0 13,-1l0 -19 -21 0 0 -25z"/>
  <polygon class="fil1" points="2559,4696 2488,4696 2488,4577 2559,4577 2559,4602 2520,4602 2520,4621 2556,4621 2556,4647 2520,4647 2520,4669 2559,4669 "/>
  <path class="fil1" d="M2612 4628l6 0c11,0 17,-5 17,-15 0,-8 -6,-12 -17,-12l-6 0 0 27zm0 24l0 43 -32 0 0 -119 39 0c32,0 49,12 49,35 0,14 -7,24 -20,32l35 52 -36 0 -25 -43 -8 0z"/>
  <path class="fil1" d="M3092 4635c0,-11 -2,-19 -6,-24 -4,-5 -11,-8 -20,-8l-9 0 0 67 7 0c10,0 17,-3 21,-9 5,-6 7,-14 7,-26zm33 -1c0,20 -5,35 -16,46 -11,11 -26,16 -46,16l-38 0 0 -119 41 0c19,0 34,5 44,15 10,10 16,24 16,42z"/>
  <path class="fil1" d="M3207 4647l-5 -20c-1,-4 -3,-10 -4,-17 -2,-7 -3,-12 -3,-15 0,3 -1,7 -3,14 -1,6 -5,19 -10,38l25 0zm13 49l-6 -22 -39 0 -6 22 -35 0 39 -119 43 0 39 119 -35 0z"/>
  <path class="fil1" d="M3381 4696l-42 0 -43 -84 -1 0c1,13 2,23 2,30l0 54 -28 0 0 -119 42 0 43 83 0 0c-1,-12 -1,-22 -1,-29l0 -54 29 0 0 119z"/>
  <path class="fil1" d="M3454 4626l51 0 0 64c-14,5 -29,7 -46,7 -18,0 -33,-5 -43,-16 -10,-11 -15,-26 -15,-45 0,-19 5,-34 16,-45 11,-11 26,-16 46,-16 7,0 15,1 21,2 7,1 12,3 17,5l-10 25c-9,-4 -18,-6 -28,-6 -9,0 -17,3 -22,9 -5,6 -8,15 -8,26 0,11 2,20 7,25 5,6 11,9 20,9 5,0 9,0 13,-1l0 -19 -21 0 0 -25z"/>
  <polygon class="fil1" points="3601,4696 3530,4696 3530,4577 3601,4577 3601,4602 3562,4602 3562,4621 3598,4621 3598,4647 3562,4647 3562,4669 3601,4669 "/>
  <path class="fil1" d="M3654 4628l6 0c11,0 17,-5 17,-15 0,-8 -6,-12 -17,-12l-6 0 0 27zm0 24l0 43 -32 0 0 -119 39 0c32,0 49,12 49,35 0,14 -7,24 -20,32l35 52 -36 0 -25 -43 -8 0z"/>
  <path class="fil1" d="M4134 4635c0,-11 -2,-19 -6,-24 -4,-5 -11,-8 -20,-8l-9 0 0 67 7 0c10,0 17,-3 21,-9 5,-6 7,-14 7,-26zm33 -1c0,20 -5,35 -16,46 -11,11 -26,16 -46,16l-38 0 0 -119 41 0c19,0 34,5 44,15 10,10 16,24 16,42z"/>
  <path class="fil1" d="M4249 4647l-5 -20c-1,-4 -3,-10 -4,-17 -2,-7 -3,-12 -3,-15 0,3 -1,7 -3,14 -1,6 -5,19 -10,38l25 0zm13 49l-6 -22 -39 0 -6 22 -35 0 39 -119 43 0 39 119 -35 0z"/>
  <path class="fil1" d="M4423 4696l-42 0 -43 -84 -1 0c1,13 2,23 2,30l0 54 -28 0 0 -119 42 0 43 83 0 0c-1,-12 -1,-22 -1,-29l0 -54 29 0 0 119z"/>
  <path class="fil1" d="M4496 4626l51 0 0 64c-14,5 -29,7 -46,7 -18,0 -33,-5 -43,-16 -10,-11 -15,-26 -15,-45 0,-19 5,-34 16,-45 11,-11 26,-16 46,-16 7,0 15,1 21,2 7,1 12,3 17,5l-10 25c-9,-4 -18,-6 -28,-6 -9,0 -17,3 -22,9 -5,6 -8,15 -8,26 0,11 2,20 7,25 5,6 11,9 20,9 5,0 9,0 13,-1l0 -19 -21 0 0 -25z"/>
  <polygon class="fil1" points="4642,4696 4572,4696 4572,4577 4642,4577 4642,4602 4604,4602 4604,4621 4639,4621 4639,4647 4604,4647 4604,4669 4642,4669 "/>
  <path class="fil1" d="M4695 4628l6 0c11,0 17,-5 17,-15 0,-8 -6,-12 -17,-12l-6 0 0 27zm0 24l0 43 -32 0 0 -119 39 0c32,0 49,12 49,35 0,14 -7,24 -20,32l35 52 -36 0 -25 -43 -8 0z"/>
  <path class="fil1" d="M5175 4635c0,-11 -2,-19 -6,-24 -4,-5 -11,-8 -20,-8l-9 0 0 67 7 0c10,0 17,-3 21,-9 5,-6 7,-14 7,-26zm33 -1c0,20 -5,35 -16,46 -11,11 -26,16 -46,16l-38 0 0 -119 41 0c19,0 34,5 44,15 10,10 16,24 16,42z"/>
  <path class="fil1" d="M5290 4647l-5 -20c-1,-4 -3,-10 -4,-17 -2,-7 -3,-12 -3,-15 0,3 -1,7 -3,14 -1,6 -5,19 -10,38l25 0zm13 49l-6 -22 -39 0 -6 22 -35 0 39 -119 43 0 39 119 -35 0z"/>
  <path class="fil1" d="M5464 4696l-42 0 -43 -84 -1 0c1,13 2,23 2,30l0 54 -28 0 0 -119 42 0 43 83 0 0c-1,-12 -1,-22 -1,-29l0 -54 29 0 0 119z"/>
  <path class="fil1" d="M5538 4626l51 0 0 64c-14,5 -29,7 -46,7 -18,0 -33,-5 -43,-16 -10,-11 -15,-26 -15,-45 0,-19 5,-34 16,-45 11,-11 26,-16 46,-16 7,0 15,1 21,2 7,1 12,3 17,5l-10 25c-9,-4 -18,-6 -28,-6 -9,0 -17,3 -22,9 -5,6 -8,15 -8,26 0,11 2,20 7,25 5,6 11,9 20,9 5,0 9,0 13,-1l0 -19 -21 0 0 -25z"/>
  <polygon class="fil1" points="5684,4696 5613,4696 5613,4577 5684,4577 5684,4602 5645,4602 5645,4621 5681,4621 5681,4647 5645,4647 5645,4669 5684,4669 "/>
  <path class="fil1" d="M5737 4628l6 0c11,0 17,-5 17,-15 0,-8 -6,-12 -17,-12l-6 0 0 27zm0 24l0 43 -32 0 0 -119 39 0c32,0 49,12 49,35 0,14 -7,24 -20,32l35 52 -36 0 -25 -43 -8 0z"/>
  <path class="fil1" d="M6217 4635c0,-11 -2,-19 -6,-24 -4,-5 -11,-8 -20,-8l-9 0 0 67 7 0c10,0 17,-3 21,-9 5,-6 7,-14 7,-26zm33 6l0 -14c-1,-15 -6,-27 -15,-36 -10,-10 -25,-15 -44,-15l-41 0 0 119 38 0c20,0 35,-5 46,-16 10,-9 15,-22 16,-39z"/>
  <path class="fil1" d="M801 3920c0,24 -19,43 -43,43 -24,0 -43,-19 -43,-43 0,-24 19,-43 43,-43 24,0 43,19 43,43z"/>
  <path class="fil1" d="M1861 3920c0,24 -19,43 -43,43 -24,0 -43,-19 -43,-43 0,-24 19,-43 43,-43 24,0 43,19 43,43z"/>
  <path class="fil1" d="M2894 3920c0,24 -19,43 -43,43 -24,0 -43,-19 -43,-43 0,-24 19,-43 43,-43 24,0 43,19 43,43z"/>
  <path class="fil1" d="M3935 3920c0,24 -19,43 -43,43 -24,0 -43,-19 -43,-43 0,-24 19,-43 43,-43 24,0 43,19 43,43z"/>
  <path class="fil1" d="M4977 3920c0,24 -19,43 -43,43 -24,0 -43,-19 -43,-43 0,-24 19,-43 43,-43 24,0 43,19 43,43z"/>
  <path class="fil1" d="M6018 3920c0,24 -19,43 -43,43 -24,0 -43,-19 -43,-43 0,-24 19,-43 43,-43 24,0 43,19 43,43z"/>
  <path class="fil1" d="M801 4642c0,24 -19,43 -43,43 -24,0 -43,-19 -43,-43 0,-24 19,-43 43,-43 24,0 43,19 43,43z"/>
  <path class="fil1" d="M1861 4642c0,24 -19,43 -43,43 -24,0 -43,-19 -43,-43 0,-24 19,-43 43,-43 24,0 43,19 43,43z"/>
  <path class="fil1" d="M2894 4642c0,24 -19,43 -43,43 -24,0 -43,-19 -43,-43 0,-24 19,-43 43,-43 24,0 43,19 43,43z"/>
  <path class="fil1" d="M3935 4642c0,24 -19,43 -43,43 -24,0 -43,-19 -43,-43 0,-24 19,-43 43,-43 24,0 43,19 43,43z"/>
  <path class="fil1" d="M4977 4642c0,24 -19,43 -43,43 -24,0 -43,-19 -43,-43 0,-24 19,-43 43,-43 24,0 43,19 43,43z"/>
  <path class="fil1" d="M6018 4642c0,24 -19,43 -43,43 -24,0 -43,-19 -43,-43 0,-24 19,-43 43,-43 24,0 43,19 43,43z"/>
  <path class="fil1" d="M0 3906l0 14c0,-2 0,-5 0,-7 0,-2 0,-5 0,-7z"/>
  <path class="fil1" d="M82 3926l-5 -20c-1,-4 -3,-10 -4,-17 -2,-7 -3,-12 -3,-15 0,3 -1,7 -3,14 -1,6 -5,19 -10,38l25 0zm13 49l-6 -22 -39 0 -6 22 -35 0 39 -119 43 0 39 119 -35 0z"/>
  <path class="fil1" d="M256 3974l-42 0 -43 -84 -1 0c1,13 2,23 2,30l0 54 -28 0 0 -119 42 0 43 83 0 0c-1,-12 -1,-22 -1,-29l0 -54 29 0 0 119z"/>
  <path class="fil1" d="M329 3905l51 0 0 64c-14,5 -29,7 -46,7 -18,0 -33,-5 -43,-16 -10,-11 -15,-26 -15,-46 0,-19 5,-34 16,-45 11,-11 26,-16 46,-16 7,0 15,1 21,2 7,1 12,3 17,5l-10 25c-9,-4 -18,-6 -28,-6 -9,0 -17,3 -22,9 -5,6 -8,15 -8,26 0,11 2,20 7,25 5,6 11,9 20,9 5,0 9,0 13,-1l0 -19 -21 0 0 -25z"/>
  <polygon class="fil1" points="476,3974 405,3974 405,3855 476,3855 476,3881 437,3881 437,3900 473,3900 473,3926 437,3926 437,3948 476,3948 "/>
  <path class="fil1" d="M529 3907l6 0c11,0 17,-5 17,-15 0,-8 -6,-12 -17,-12l-6 0 0 27zm0 24l0 43 -32 0 0 -119 39 0c32,0 49,12 49,35 0,14 -7,24 -20,32l35 52 -36 0 -25 -43 -8 0z"/>
  <path class="fil1" d="M1009 3914c0,-11 -2,-19 -6,-24 -4,-5 -11,-8 -20,-8l-9 0 0 67 7 0c10,0 17,-3 21,-9 5,-6 7,-14 7,-26zm33 -1c0,20 -5,35 -16,46 -11,11 -26,16 -46,16l-38 0 0 -119 41 0c19,0 34,5 44,15 10,10 16,24 16,42z"/>
  <path class="fil1" d="M1124 3926l-5 -20c-1,-4 -3,-10 -4,-17 -2,-7 -3,-12 -3,-15 0,3 -1,7 -3,14 -1,6 -5,19 -10,38l25 0zm13 49l-6 -22 -39 0 -6 22 -35 0 39 -119 43 0 39 119 -35 0z"/>
  <path class="fil1" d="M1298 3974l-42 0 -43 -84 -1 0c1,13 2,23 2,30l0 54 -28 0 0 -119 42 0 43 83 0 0c-1,-12 -1,-22 -1,-29l0 -54 29 0 0 119z"/>
  <path class="fil1" d="M1371 3905l51 0 0 64c-14,5 -29,7 -46,7 -18,0 -33,-5 -43,-16 -10,-11 -15,-26 -15,-46 0,-19 5,-34 16,-45 11,-11 26,-16 46,-16 7,0 15,1 21,2 7,1 12,3 17,5l-10 25c-9,-4 -18,-6 -28,-6 -9,0 -17,3 -22,9 -5,6 -8,15 -8,26 0,11 2,20 7,25 5,6 11,9 20,9 5,0 9,0 13,-1l0 -19 -21 0 0 -25z"/>
  <polygon class="fil1" points="1517,3974 1447,3974 1447,3855 1517,3855 1517,3881 1479,3881 1479,3900 1514,3900 1514,3926 1479,3926 1479,3948 1517,3948 "/>
  <path class="fil1" d="M1570 3907l6 0c11,0 17,-5 17,-15 0,-8 -6,-12 -17,-12l-6 0 0 27zm0 24l0 43 -32 0 0 -119 39 0c32,0 49,12 49,35 0,14 -7,24 -20,32l35 52 -36 0 -25 -43 -8 0z"/>
  <path class="fil1" d="M2050 3914c0,-11 -2,-19 -6,-24 -4,-5 -11,-8 -20,-8l-9 0 0 67 7 0c10,0 17,-3 21,-9 5,-6 7,-14 7,-26zm33 -1c0,20 -5,35 -16,46 -11,11 -26,16 -46,16l-38 0 0 -119 41 0c19,0 34,5 44,15 10,10 16,24 16,42z"/>
  <path class="fil1" d="M2165 3926l-5 -20c-1,-4 -3,-10 -4,-17 -2,-7 -3,-12 -3,-15 0,3 -1,7 -3,14 -1,6 -5,19 -10,38l25 0zm13 49l-6 -22 -39 0 -6 22 -35 0 39 -119 43 0 39 119 -35 0z"/>
  <path class="fil1" d="M2339 3974l-42 0 -43 -84 -1 0c1,13 2,23 2,30l0 54 -28 0 0 -119 42 0 43 83 0 0c-1,-12 -1,-22 -1,-29l0 -54 29 0 0 119z"/>
  <path class="fil1" d="M2413 3905l51 0 0 64c-14,5 -29,7 -46,7 -18,0 -33,-5 -43,-16 -10,-11 -15,-26 -15,-46 0,-19 5,-34 16,-45 11,-11 26,-16 46,-16 7,0 15,1 21,2 7,1 12,3 17,5l-10 25c-9,-4 -18,-6 -28,-6 -9,0 -17,3 -22,9 -5,6 -8,15 -8,26 0,11 2,20 7,25 5,6 11,9 20,9 5,0 9,0 13,-1l0 -19 -21 0 0 -25z"/>
  <polygon class="fil1" points="2559,3974 2488,3974 2488,3855 2559,3855 2559,3881 2520,3881 2520,3900 2556,3900 2556,3926 2520,3926 2520,3948 2559,3948 "/>
  <path class="fil1" d="M2612 3907l6 0c11,0 17,-5 17,-15 0,-8 -6,-12 -17,-12l-6 0 0 27zm0 24l0 43 -32 0 0 -119 39 0c32,0 49,12 49,35 0,14 -7,24 -20,32l35 52 -36 0 -25 -43 -8 0z"/>
  <path class="fil1" d="M3092 3914c0,-11 -2,-19 -6,-24 -4,-5 -11,-8 -20,-8l-9 0 0 67 7 0c10,0 17,-3 21,-9 5,-6 7,-14 7,-26zm33 -1c0,20 -5,35 -16,46 -11,11 -26,16 -46,16l-38 0 0 -119 41 0c19,0 34,5 44,15 10,10 16,24 16,42z"/>
  <path class="fil1" d="M3207 3926l-5 -20c-1,-4 -3,-10 -4,-17 -2,-7 -3,-12 -3,-15 0,3 -1,7 -3,14 -1,6 -5,19 -10,38l25 0zm13 49l-6 -22 -39 0 -6 22 -35 0 39 -119 43 0 39 119 -35 0z"/>
  <path class="fil1" d="M3381 3974l-42 0 -43 -84 -1 0c1,13 2,23 2,30l0 54 -28 0 0 -119 42 0 43 83 0 0c-1,-12 -1,-22 -1,-29l0 -54 29 0 0 119z"/>
  <path class="fil1" d="M3454 3905l51 0 0 64c-14,5 -29,7 -46,7 -18,0 -33,-5 -43,-16 -10,-11 -15,-26 -15,-46 0,-19 5,-34 16,-45 11,-11 26,-16 46,-16 7,0 15,1 21,2 7,1 12,3 17,5l-10 25c-9,-4 -18,-6 -28,-6 -9,0 -17,3 -22,9 -5,6 -8,15 -8,26 0,11 2,20 7,25 5,6 11,9 20,9 5,0 9,0 13,-1l0 -19 -21 0 0 -25z"/>
  <polygon class="fil1" points="3601,3974 3530,3974 3530,3855 3601,3855 3601,3881 3562,3881 3562,3900 3598,3900 3598,3926 3562,3926 3562,3948 3601,3948 "/>
  <path class="fil1" d="M3654 3907l6 0c11,0 17,-5 17,-15 0,-8 -6,-12 -17,-12l-6 0 0 27zm0 24l0 43 -32 0 0 -119 39 0c32,0 49,12 49,35 0,14 -7,24 -20,32l35 52 -36 0 -25 -43 -8 0z"/>
  <path class="fil1" d="M4134 3914c0,-11 -2,-19 -6,-24 -4,-5 -11,-8 -20,-8l-9 0 0 67 7 0c10,0 17,-3 21,-9 5,-6 7,-14 7,-26zm33 -1c0,20 -5,35 -16,46 -11,11 -26,16 -46,16l-38 0 0 -119 41 0c19,0 34,5 44,15 10,10 16,24 16,42z"/>
  <path class="fil1" d="M4249 3926l-5 -20c-1,-4 -3,-10 -4,-17 -2,-7 -3,-12 -3,-15 0,3 -1,7 -3,14 -1,6 -5,19 -10,38l25 0zm13 49l-6 -22 -39 0 -6 22 -35 0 39 -119 43 0 39 119 -35 0z"/>
  <path class="fil1" d="M4423 3974l-42 0 -43 -84 -1 0c1,13 2,23 2,30l0 54 -28 0 0 -119 42 0 43 83 0 0c-1,-12 -1,-22 -1,-29l0 -54 29 0 0 119z"/>
  <path class="fil1" d="M4496 3905l51 0 0 64c-14,5 -29,7 -46,7 -18,0 -33,-5 -43,-16 -10,-11 -15,-26 -15,-46 0,-19 5,-34 16,-45 11,-11 26,-16 46,-16 7,0 15,1 21,2 7,1 12,3 17,5l-10 25c-9,-4 -18,-6 -28,-6 -9,0 -17,3 -22,9 -5,6 -8,15 -8,26 0,11 2,20 7,25 5,6 11,9 20,9 5,0 9,0 13,-1l0 -19 -21 0 0 -25z"/>
  <polygon class="fil1" points="4642,3974 4572,3974 4572,3855 4642,3855 4642,3881 4604,3881 4604,3900 4639,3900 4639,3926 4604,3926 4604,3948 4642,3948 "/>
  <path class="fil1" d="M4695 3907l6 0c11,0 17,-5 17,-15 0,-8 -6,-12 -17,-12l-6 0 0 27zm0 24l0 43 -32 0 0 -119 39 0c32,0 49,12 49,35 0,14 -7,24 -20,32l35 52 -36 0 -25 -43 -8 0z"/>
  <path class="fil1" d="M5175 3914c0,-11 -2,-19 -6,-24 -4,-5 -11,-8 -20,-8l-9 0 0 67 7 0c10,0 17,-3 21,-9 5,-6 7,-14 7,-26zm33 -1c0,20 -5,35 -16,46 -11,11 -26,16 -46,16l-38 0 0 -119 41 0c19,0 34,5 44,15 10,10 16,24 16,42z"/>
  <path class="fil1" d="M5290 3926l-5 -20c-1,-4 -3,-10 -4,-17 -2,-7 -3,-12 -3,-15 0,3 -1,7 -3,14 -1,6 -5,19 -10,38l25 0zm13 49l-6 -22 -39 0 -6 22 -35 0 39 -119 43 0 39 119 -35 0z"/>
  <path class="fil1" d="M5464 3974l-42 0 -43 -84 -1 0c1,13 2,23 2,30l0 54 -28 0 0 -119 42 0 43 83 0 0c-1,-12 -1,-22 -1,-29l0 -54 29 0 0 119z"/>
  <path class="fil1" d="M5538 3905l51 0 0 64c-14,5 -29,7 -46,7 -18,0 -33,-5 -43,-16 -10,-11 -15,-26 -15,-46 0,-19 5,-34 16,-45 11,-11 26,-16 46,-16 7,0 15,1 21,2 7,1 12,3 17,5l-10 25c-9,-4 -18,-6 -28,-6 -9,0 -17,3 -22,9 -5,6 -8,15 -8,26 0,11 2,20 7,25 5,6 11,9 20,9 5,0 9,0 13,-1l0 -19 -21 0 0 -25z"/>
  <polygon class="fil1" points="5684,3974 5613,3974 5613,3855 5684,3855 5684,3881 5645,3881 5645,3900 5681,3900 5681,3926 5645,3926 5645,3948 5684,3948 "/>
  <path class="fil1" d="M5737 3907l6 0c11,0 17,-5 17,-15 0,-8 -6,-12 -17,-12l-6 0 0 27zm0 24l0 43 -32 0 0 -119 39 0c32,0 49,12 49,35 0,14 -7,24 -20,32l35 52 -36 0 -25 -43 -8 0z"/>
  <path class="fil1" d="M6217 3914c0,-11 -2,-19 -6,-24 -4,-5 -11,-8 -20,-8l-9 0 0 67 7 0c10,0 17,-3 21,-9 5,-6 7,-14 7,-26zm33 6l0 -14c-1,-15 -6,-27 -15,-36 -10,-10 -25,-15 -44,-15l-41 0 0 119 38 0c20,0 35,-5 46,-16 10,-9 15,-22 16,-39z"/>
  <polygon class="fil0" points="0,2841 6250,2841 6250,2355 0,2355 "/>
  <path class="fil1" d="M867 2598c0,38 -31,69 -69,69 -38,0 -69,-31 -69,-69 0,-38 31,-69 69,-69 38,0 69,31 69,69z"/>
  <path class="fil1" d="M3992 2598c0,38 -31,69 -69,69 -38,0 -69,-31 -69,-69 0,-38 31,-69 69,-69 38,0 69,31 69,69z"/>
  <path class="fil1" d="M15 2531l-13 34c-1,0 -1,-1 -2,-1l0 -39c5,2 10,3 15,6z"/>
  <path class="fil1" d="M8 2638l0 36c-3,1 -5,2 -8,3l0 -36c3,-1 5,-2 8,-3z"/>
  <polygon class="fil1" points="109,2681 66,2681 66,2557 27,2557 27,2522 148,2522 148,2557 109,2557 "/>
  <polygon class="fil1" points="170,2681 213,2681 213,2522 170,2522 "/>
  <path class="fil1" d="M287 2601c0,31 11,46 32,46 11,0 19,-4 24,-11 5,-7 8,-19 8,-35 0,-16 -3,-28 -8,-35 -5,-8 -13,-11 -24,-11 -21,0 -32,15 -32,46zm109 0c0,27 -7,47 -20,61 -13,14 -32,21 -58,21 -25,0 -44,-7 -57,-21 -13,-14 -20,-34 -20,-61 0,-26 7,-47 20,-61 13,-14 32,-21 58,-21 25,0 44,7 57,21 13,14 20,34 20,61z"/>
  <path class="fil1" d="M576 2681l-56 0 -58 -112 -1 0c1,18 2,31 2,40l0 72 -38 0 0 -159 56 0 58 110 1 0c-1,-16 -2,-29 -2,-39l0 -72 38 0 0 159z"/>
  <path class="fil1" d="M4348 2522l0 95c0,21 -6,37 -18,48 -12,11 -29,17 -51,17 -22,0 -38,-6 -50,-17 -12,-11 -17,-27 -17,-48l0 -96 43 0 0 93c0,11 2,19 6,24 4,5 10,8 19,8 9,0 15,-3 19,-8 4,-5 6,-13 6,-25l0 -93 43 0z"/>
  <path class="fil1" d="M4533 2681l-56 0 -58 -112 -1 0c1,18 2,31 2,40l0 72 -38 0 0 -159 56 0 58 110 1 0c-1,-16 -2,-29 -2,-39l0 -72 38 0 0 159z"/>
  <path class="fil1" d="M4657 2600c0,-15 -3,-25 -9,-32 -6,-7 -14,-11 -26,-11l-12 0 0 89 10 0c13,0 23,-4 29,-11 6,-8 9,-19 9,-35zm44 -2c0,26 -7,47 -22,61 -15,14 -35,21 -61,21l-51 0 0 -159 55 0c25,0 45,7 59,20 14,13 21,32 21,56z"/>
  <polygon class="fil1" points="4824,2681 4730,2681 4730,2522 4824,2522 4824,2556 4773,2556 4773,2581 4820,2581 4820,2616 4773,2616 4773,2646 4824,2646 "/>
  <path class="fil1" d="M4895 2591l8 0c15,0 22,-7 22,-20 0,-11 -7,-16 -22,-16l-8 0 0 36zm0 32l0 58 -43 0 0 -159 52 0c43,0 65,16 65,47 0,18 -9,33 -27,43l46 69 -49 0 -34 -58 -11 0z"/>
  <path class="fil1" d="M5131 2555c-10,0 -18,4 -24,13 -6,8 -9,20 -9,35 0,31 12,46 35,46 7,0 14,-1 20,-3 7,-2 13,-4 20,-7l0 36c-13,6 -28,9 -45,9 -24,0 -42,-7 -55,-21 -13,-14 -19,-34 -19,-60 0,-16 3,-31 9,-43 6,-12 15,-22 27,-29 12,-7 25,-10 41,-10 17,0 34,4 49,11l-13 34c-6,-3 -12,-5 -18,-7 -6,-2 -12,-3 -19,-3z"/>
  <path class="fil1" d="M5243 2601c0,31 11,46 32,46 11,0 19,-4 24,-11 5,-7 8,-19 8,-35 0,-16 -3,-28 -8,-35 -5,-8 -13,-11 -24,-11 -21,0 -32,15 -32,46zm109 0c0,27 -7,47 -20,61 -13,14 -32,21 -58,21 -25,0 -44,-7 -57,-21 -13,-14 -20,-34 -20,-61 0,-26 7,-47 20,-61 13,-14 32,-21 58,-21 25,0 44,7 57,21 13,14 20,34 20,61z"/>
  <path class="fil1" d="M5532 2681l-56 0 -58 -112 -1 0c1,18 2,31 2,40l0 72 -38 0 0 -159 56 0 58 110 1 0c-1,-16 -2,-29 -2,-39l0 -72 38 0 0 159z"/>
  <path class="fil1" d="M5670 2632c0,10 -2,19 -7,26 -5,8 -12,14 -22,18 -9,4 -20,6 -33,6 -11,0 -19,-1 -27,-2 -7,-1 -15,-4 -22,-8l0 -38c8,4 17,7 26,10 9,2 17,4 24,4 6,0 11,-1 14,-3 3,-2 4,-5 4,-9 0,-2 -1,-4 -2,-6 -1,-2 -3,-3 -6,-5 -3,-2 -10,-5 -21,-10 -10,-5 -18,-9 -23,-14 -5,-4 -9,-9 -12,-15 -3,-6 -4,-12 -4,-20 0,-15 5,-26 16,-34 11,-8 25,-12 44,-12 16,0 33,4 50,11l-13 33c-15,-7 -28,-10 -38,-10 -6,0 -10,1 -12,3 -3,2 -4,4 -4,7 0,3 2,6 5,8 3,2 12,7 26,13 14,6 23,13 28,20 5,7 8,16 8,27z"/>
  <polygon class="fil1" points="5765,2681 5722,2681 5722,2557 5683,2557 5683,2522 5803,2522 5803,2557 5765,2557 "/>
  <path class="fil1" d="M5869 2591l8 0c15,0 22,-7 22,-20 0,-11 -7,-16 -22,-16l-8 0 0 36zm0 32l0 58 -43 0 0 -159 52 0c43,0 65,16 65,47 0,18 -9,33 -27,43l46 69 -49 0 -34 -58 -11 0z"/>
  <path class="fil1" d="M6111 2522l0 95c0,21 -6,37 -18,48 -12,11 -29,17 -51,17 -22,0 -38,-6 -50,-17 -12,-11 -17,-27 -17,-48l0 -96 43 0 0 93c0,11 2,19 6,24 4,5 10,8 19,8 9,0 15,-3 19,-8 4,-5 6,-13 6,-25l0 -93 43 0z"/>
  <path class="fil1" d="M6215 2555c7,0 13,1 19,3 5,2 10,4 16,6l0 -39c-11,-3 -23,-5 -34,-5 -16,0 -29,3 -41,10 -12,7 -21,16 -27,29 -6,12 -9,27 -9,43 0,26 6,46 19,60 13,14 31,21 55,21 13,0 26,-2 37,-6l0 -36c-4,1 -8,3 -12,4 -7,2 -13,3 -20,3 -23,0 -35,-15 -35,-46 0,-15 3,-26 9,-35 6,-8 14,-13 24,-13z"/>
  <path class="fil1" d="M1188 2522l0 95c0,21 -6,37 -18,48 -12,11 -29,17 -51,17 -22,0 -38,-6 -50,-17 -12,-11 -17,-27 -17,-48l0 -96 43 0 0 93c0,11 2,19 6,24 4,5 10,8 19,8 9,0 15,-3 19,-8 4,-5 6,-13 6,-25l0 -93 43 0z"/>
  <path class="fil1" d="M1372 2681l-56 0 -58 -112 -1 0c1,18 2,31 2,40l0 72 -38 0 0 -159 56 0 58 110 1 0c-1,-16 -2,-29 -2,-39l0 -72 38 0 0 159z"/>
  <path class="fil1" d="M1497 2600c0,-15 -3,-25 -9,-32 -6,-7 -14,-11 -26,-11l-12 0 0 89 10 0c13,0 23,-4 29,-11 6,-8 9,-19 9,-35zm44 -2c0,26 -7,47 -22,61 -15,14 -35,21 -61,21l-51 0 0 -159 55 0c25,0 45,7 59,20 14,13 21,32 21,56z"/>
  <polygon class="fil1" points="1664,2681 1570,2681 1570,2522 1664,2522 1664,2556 1613,2556 1613,2581 1660,2581 1660,2616 1613,2616 1613,2646 1664,2646 "/>
  <path class="fil1" d="M1735 2591l8 0c15,0 22,-7 22,-20 0,-11 -7,-16 -22,-16l-8 0 0 36zm0 32l0 58 -43 0 0 -159 52 0c43,0 65,16 65,47 0,18 -9,33 -27,43l46 69 -49 0 -34 -58 -11 0z"/>
  <path class="fil1" d="M1970 2555c-10,0 -18,4 -24,13 -6,8 -9,20 -9,35 0,31 12,46 35,46 7,0 14,-1 20,-3 7,-2 13,-4 20,-7l0 36c-13,6 -28,9 -45,9 -24,0 -42,-7 -55,-21 -13,-14 -19,-34 -19,-60 0,-16 3,-31 9,-43 6,-12 15,-22 27,-29 12,-7 25,-10 41,-10 17,0 34,4 49,11l-13 34c-6,-3 -12,-5 -18,-7 -6,-2 -12,-3 -19,-3z"/>
  <path class="fil1" d="M2083 2601c0,31 11,46 32,46 11,0 19,-4 24,-11 5,-7 8,-19 8,-35 0,-16 -3,-28 -8,-35 -5,-8 -13,-11 -24,-11 -21,0 -32,15 -32,46zm109 0c0,27 -7,47 -20,61 -13,14 -32,21 -58,21 -25,0 -44,-7 -57,-21 -13,-14 -20,-34 -20,-61 0,-26 7,-47 20,-61 13,-14 32,-21 58,-21 25,0 44,7 57,21 13,14 20,34 20,61z"/>
  <path class="fil1" d="M2372 2681l-56 0 -58 -112 -1 0c1,18 2,31 2,40l0 72 -38 0 0 -159 56 0 58 110 1 0c-1,-16 -2,-29 -2,-39l0 -72 38 0 0 159z"/>
  <path class="fil1" d="M2510 2632c0,10 -2,19 -7,26 -5,8 -12,14 -22,18 -9,4 -20,6 -33,6 -11,0 -19,-1 -27,-2 -7,-1 -15,-4 -22,-8l0 -38c8,4 17,7 26,10 9,2 17,4 24,4 6,0 11,-1 14,-3 3,-2 4,-5 4,-9 0,-2 -1,-4 -2,-6 -1,-2 -3,-3 -6,-5 -3,-2 -10,-5 -21,-10 -10,-5 -18,-9 -23,-14 -5,-4 -9,-9 -12,-15 -3,-6 -4,-12 -4,-20 0,-15 5,-26 16,-34 11,-8 25,-12 44,-12 16,0 33,4 50,11l-13 33c-15,-7 -28,-10 -38,-10 -6,0 -10,1 -12,3 -3,2 -4,4 -4,7 0,3 2,6 5,8 3,2 12,7 26,13 14,6 23,13 28,20 5,7 8,16 8,27z"/>
  <polygon class="fil1" points="2605,2681 2562,2681 2562,2557 2523,2557 2523,2522 2643,2522 2643,2557 2605,2557 "/>
  <path class="fil1" d="M2709 2591l8 0c15,0 22,-7 22,-20 0,-11 -7,-16 -22,-16l-8 0 0 36zm0 32l0 58 -43 0 0 -159 52 0c43,0 65,16 65,47 0,18 -9,33 -27,43l46 69 -49 0 -34 -58 -11 0z"/>
  <path class="fil1" d="M2951 2522l0 95c0,21 -6,37 -18,48 -12,11 -29,17 -51,17 -22,0 -38,-6 -50,-17 -12,-11 -17,-27 -17,-48l0 -96 43 0 0 93c0,11 2,19 6,24 4,5 10,8 19,8 9,0 15,-3 19,-8 4,-5 6,-13 6,-25l0 -93 43 0z"/>
  <path class="fil1" d="M3055 2555c-10,0 -18,4 -24,13 -6,8 -9,20 -9,35 0,31 12,46 35,46 7,0 14,-1 20,-3 7,-2 13,-4 20,-7l0 36c-13,6 -28,9 -45,9 -24,0 -42,-7 -55,-21 -13,-14 -19,-34 -19,-60 0,-16 3,-31 9,-43 6,-12 15,-22 27,-29 12,-7 25,-10 41,-10 17,0 34,4 49,11l-13 34c-6,-3 -12,-5 -18,-7 -6,-2 -12,-3 -19,-3z"/>
  <polygon class="fil1" points="3199,2681 3156,2681 3156,2557 3117,2557 3117,2522 3237,2522 3237,2557 3199,2557 "/>
  <polygon class="fil1" points="3260,2681 3303,2681 3303,2522 3260,2522 "/>
  <path class="fil1" d="M3377 2601c0,31 11,46 32,46 11,0 19,-4 24,-11 5,-7 8,-19 8,-35 0,-16 -3,-28 -8,-35 -5,-8 -13,-11 -24,-11 -21,0 -32,15 -32,46zm109 0c0,27 -7,47 -20,61 -13,14 -32,21 -58,21 -25,0 -44,-7 -57,-21 -13,-14 -20,-34 -20,-61 0,-26 7,-47 20,-61 13,-14 32,-21 58,-21 25,0 44,7 57,21 13,14 20,34 20,61z"/>
  <path class="fil1" d="M3666 2681l-56 0 -58 -112 -1 0c1,18 2,31 2,40l0 72 -38 0 0 -159 56 0 58 110 1 0c-1,-16 -2,-29 -2,-39l0 -72 38 0 0 159z"/>
 </g>
</svg>
