<?xml version="1.0" encoding="UTF-8" standalone="no"?>
<!-- Created with Inkscape (http://www.inkscape.org/) -->

<svg
   xmlns:dc="http://purl.org/dc/elements/1.1/"
   xmlns:cc="http://creativecommons.org/ns#"
   xmlns:rdf="http://www.w3.org/1999/02/22-rdf-syntax-ns#"
   xmlns:svg="http://www.w3.org/2000/svg"
   xmlns="http://www.w3.org/2000/svg"
   xmlns:sodipodi="http://sodipodi.sourceforge.net/DTD/sodipodi-0.dtd"
   xmlns:inkscape="http://www.inkscape.org/namespaces/inkscape"
   width="2.5in"
   height="3.5in"
   viewBox="0 0 63.5 88.899999"
   version="1.1"
   id="svg8"
   inkscape:version="0.92.2 (5c3e80d, 2017-08-06)"
   sodipodi:docname="mgscard.svg">
  <defs
     id="defs2" />
  <sodipodi:namedview
     id="base"
     pagecolor="#ffffff"
     bordercolor="#666666"
     borderopacity="1.0"
     inkscape:pageopacity="0.0"
     inkscape:pageshadow="2"
     inkscape:zoom="1.979899"
     inkscape:cx="234.23677"
     inkscape:cy="172.50974"
     inkscape:document-units="mm"
     inkscape:current-layer="layer1"
     showgrid="false"
     units="in"
     inkscape:window-width="1920"
     inkscape:window-height="1017"
     inkscape:window-x="-8"
     inkscape:window-y="-8"
     inkscape:window-maximized="1" />
  <metadata
     id="metadata5">
    <rdf:RDF>
      <cc:Work
         rdf:about="">
        <dc:format>image/svg+xml</dc:format>
        <dc:type
           rdf:resource="http://purl.org/dc/dcmitype/StillImage" />
        <dc:title></dc:title>
      </cc:Work>
    </rdf:RDF>
  </metadata>
  <g
     inkscape:label="Layer 1"
     inkscape:groupmode="layer"
     id="layer1"
     transform="translate(0,-208.10002)">
    <path
       d="m 23.17313,264.43417 c 0.440482,1.0241 0.840043,0.94334 1.289844,0.22325 l 0.677994,-1.08314 c 0.139671,-0.2236 0.207442,-0.49567 0.446485,0.1819 l 4.638476,13.15475 c 0.419042,1.18776 0.765072,0.70338 0.553972,-0.29765 l -3.886068,-18.07435 c -0.19554,-0.91046 -0.719481,-1.1175 -1.07487,-0.62839 l -0.471289,0.64492 c -0.260548,0.35859 -0.674216,0.78441 -0.826823,-0.17363 l -0.727604,-4.5806 c -0.195705,-1.2286 -0.152542,-1.6377 0.314193,-2.62103 1.901772,-4.0067 4.392565,-6.49442 6.912239,-8.90488 0.546997,-0.52329 1.617089,-1.02719 1.72806,0.14056 0.06515,0.68554 0.702638,1.72127 1.645378,2.21588 1.370295,0.71893 2.535034,1.78263 2.968294,2.21589 0.687602,0.6876 0.980189,1.58303 0.859896,2.50527 l -0.37207,2.80293 c -0.207746,1.59272 0.260948,2.55825 1.099674,3.16674 l 3.108854,2.25722 c 0.181142,0.13142 0.298773,0.32027 0.272852,0.59531 -0.04029,0.42752 -0.224753,0.71332 -0.56224,0.72761 -0.37557,0.0159 -0.49989,-0.40305 -0.471289,-0.52917 0.04936,-0.21767 0.169582,-0.41565 -0.04134,-0.57051 l -1.504818,-1.10794 c -0.368091,-0.27024 -0.605567,-0.31606 -0.79375,0.11576 l -1.02526,2.34817 c -0.764328,0.003 -1.4238,0.0305 -1.909961,0.1323 -2.62233,0.54885 -4.370136,4.44647 -4.456576,4.91132 -0.419674,2.25694 0.470123,1.50287 1.165821,0.69453 0.825222,-0.95882 1.850601,-1.20079 3.290755,-1.36425 l -2.844271,6.54017 c -0.26842,0.61593 0.06329,1.05261 0.487826,0.38033 l 4.90306,-6.98665 c 0.506441,0.10028 1.126278,0.26106 1.835546,0.43822 l -2.587955,5.69681 c -0.184941,0.40599 -0.533244,1.05611 0.355534,1.01699 0.729691,-0.0321 1.36593,-0.28433 2.000911,-0.53744 l -2.075325,5.18418 c -0.441894,1.10474 0.258098,0.76215 0.694531,0.14056 l 5.308203,-7.55716 c 0.525163,-0.74796 0.05784,-0.70545 -0.479557,-0.58704 l -1.058334,0.23151 c -0.747699,0.16475 -0.361717,-0.26552 0,-0.678 0.653299,-0.74498 0.957673,-1.49571 1.30638,-2.24069 0.280287,0.0309 0.562433,0.0577 0.851628,0.0744 3.627213,0.20918 8.207894,-1.09737 10.699089,-5.17591 4.127325,-6.75719 0.01003,-16.7201 -2.505274,-19.0252 -0.427553,-0.39182 -0.786569,-0.58914 -1.397331,-0.42995 -0.985273,0.25681 -2.904355,0.3432 -3.356901,0.0579 -0.458776,-0.28925 -1.672084,-2.0461 -2.662369,-2.62103 -1.007994,-3.60777 -2.914092,-7.57617 -6.217709,-9.01237 -1.545457,-0.67186 -2.932472,-0.95278 -4.20026,-0.95084 -2.789134,0.004 -5.013984,1.37053 -7.110677,2.95175 -3.206046,2.41785 -7.681185,7.80521 -7.681185,7.80521 -0.336101,0.34677 -0.322378,0.54344 -0.12409,0.73574 0.374248,0.36295 0.324787,0.94832 0.02405,1.28223 -0.279936,0.31081 -0.71098,0.37832 -1.014973,0.35103 -0.906245,-0.0813 -1.738056,-1.29285 -3.135388,-1.49832 -1.740094,-0.25587 -2.6082,0.55493 -2.6082,0.55493 0,0 0.05549,-1.33184 -0.277468,-2.71918 -0.332961,-1.38734 -1.099679,-3.13033 -2.171844,-3.10258 -0.638566,0.0165 -0.797063,5.32232 -0.797063,5.32232 0,0 -1.2486056,2.63595 -1.3040996,2.91341 -0.05549,0.27747 -0.166481,3.27413 -0.166481,3.69033 0,0.4162 -0.582682,2.10876 -0.665923,2.83017 -0.08324,0.72142 -0.170944,2.11402 -0.198691,2.44699 -0.02775,0.33296 -0.383992,0.7439 -0.439486,1.27109 -0.05549,0.52718 0.192196,1.61557 0.08324,1.83128 -0.17379,0.34407 -1.165365,0.63818 -1.165365,0.99889 0,0.36071 0.471696,0.80466 1.165365,0.72142 0.693671,-0.0832 1.026633,-0.52719 1.22086,-0.86015 0.194228,-0.33297 0.166481,-0.83241 0.305215,-0.99889 0.138734,-0.16648 1.1396506,-0.34032 1.3595926,-0.52719 0.314349,-0.26707 1.581568,-2.96891 1.775796,-3.0244 0.194227,-0.0555 1.114501,0.0591 1.55845,0.0591 0.443949,0 1.493698,-0.17005 1.493698,-0.17005 0,0 0.138734,0.69367 0.804657,0.97114 0.665923,0.27747 1.549763,0.0588 1.549763,0.0588 z m 22.911263,-24.42435 c 1.12989,0.40386 1.754314,1.42088 2.439128,2.43913 1.41638,2.10603 3.420237,9.27961 0.553971,13.60951 -0.683459,1.03246 -1.641705,1.71918 -2.728516,2.18281 0.177927,-0.39139 0.343834,-0.8405 0.347266,-1.18236 0.01312,-1.30753 -1.686166,-1.84008 -1.769401,-4.77903 -0.08545,-3.01703 1.517695,-4.31949 1.521354,-8.90489 5.29e-4,-0.76693 -0.11031,-1.968 -0.363802,-3.36517 z m 0.264583,9.64076 c -1.123399,1.43111 -0.878411,3.48934 0.132292,4.77077 l 1.496549,-2.58796 z m -28.442708,4.20853 0.115755,4.15892 -3.886068,-1.88516 c -0.351951,-0.17064 -0.754842,-0.15198 -0.446484,0.55397 l 5.349544,12.26179 c 0.06713,0.15369 0.408802,0.53487 0.595313,0.48782 0.200651,-0.0506 0.133911,-0.52932 0.05788,-0.80202 l -2.042252,-7.31738 c -0.10299,-0.36938 -0.06951,-0.52053 0.314193,-0.339 0,0 1.252849,0.87489 1.827278,0.86817 0.388191,-0.005 0.884061,-0.45739 1.033529,-0.68627 0.05283,-0.0809 0.01658,-0.55555 -0.03307,-0.66972 z"
       style="opacity:0.5;fill:#000000;fill-opacity:1;stroke:none;stroke-width:0.26458332"
       id="mainsymbolpath"
       inkscape:connector-curvature="0" />
  </g>
</svg>
