<svg xmlns="http://www.w3.org/2000/svg" width="600" height="543.999" viewBox="0 0 6250 5667" shape-rendering="geometricPrecision" text-rendering="geometricPrecision" image-rendering="optimizeQuality" fill-rule="evenodd" clip-rule="evenodd"><defs><style>.fil0,.fil1{fill:red;fill-rule:nonzero}.fil1{fill:#fff}</style></defs><g id="Layer_x0020_1"><path class="fil0" d="M0 479h6250V-7H0z"/><path class="fil1" d="M360 259L139 479H0v-76l143-144L0 115V-7h94z"/><path class="fil1" d="M777 259L556 479H340l221-220L295-7h216z"/><path class="fil1" d="M1194 259L974 479H758l220-220L713-7h216z"/><path class="fil1" d="M1612 259l-221 220h-216l221-220L1130-7h216z"/><path class="fil1" d="M2029 259l-220 220h-216l220-220L1548-7h216z"/><path class="fil1" d="M2447 259l-221 220h-216l220-220L1965-7h216z"/><path class="fil1" d="M2864 259l-221 220h-216l221-220L2382-7h216z"/><path class="fil1" d="M3281 259l-220 220h-216l220-220L2800-7h216z"/><path class="fil1" d="M3699 259l-221 220h-216l221-220L3217-7h216z"/><path class="fil1" d="M4116 259l-220 220h-216l220-220L3634-7h217z"/><path class="fil1" d="M4533 259l-220 220h-216l220-220L4052-7h216z"/><path class="fil1" d="M4951 259l-221 220h-216l221-220L4469-7h216z"/><path class="fil1" d="M5368 259l-220 220h-216l220-220L4887-7h216z"/><path class="fil1" d="M5786 259l-221 220h-216l221-220L5304-7h216z"/><path class="fil1" d="M6203 259l-220 220h-216l220-220L5721-7h217zm47-266v122L6128-7zm-77 486l77-77v77z"/><path class="fil0" d="M0 1243h6250V757H0z"/><path class="fil1" d="M698 1000l-243 243H239l243-243-243-243h216z"/><path class="fil1" d="M310 1000L67 1243H0v-149l93-94-93-93V757h67zm5940-243v150l-150-150zm-149 486l149-149v149zm-5008-243l-243 243H634l243-243-243-243h216z"/><path class="fil1" d="M1488 1000l-243 243h-216l243-243-243-243h216z"/><path class="fil1" d="M1883 1000l-243 243h-216l243-243-243-243h216z"/><path class="fil1" d="M2278 1000l-243 243h-216l243-243-243-243h216zm2285 0l-243 243h-216l243-243-243-243h216z"/><path class="fil1" d="M4958 1000l-243 243h-216l243-243-243-243h216z"/><path class="fil1" d="M5353 1000l-243 243h-216l243-243-243-243h216z"/><path class="fil1" d="M5748 1000l-243 243h-216l243-243-243-243h216z"/><path class="fil1" d="M6143 1000l-243 243h-216l243-243-243-243h216zm-3480 4c0-22-4-39-13-50s-22-16-40-16h-19v136h15c20 0 35-6 44-17 9-12 14-29 14-53zm68-2c0 41-11 72-34 94-22 22-54 33-94 33h-79V886h84c39 0 69 10 90 30s32 49 32 87zm168 27l-11-40c-2-9-5-20-9-34s-6-24-7-30c-1 6-3 15-6 28s-9 39-20 77h52zm26 100l-12-46h-79l-12 46h-72l79-244h88l80 244h-72zm329-1h-86l-89-171h-1c2 27 3 48 3 62v110h-58V886h86l89 169h1c-2-25-2-44-2-59V886h59v243zm150-142h105v131c-29 10-60 15-94 15-38 0-67-11-87-33s-31-53-31-93c0-39 11-70 34-92 22-22 54-33 94-33 15 0 30 1 43 4 14 3 25 7 36 11l-21 52c-18-9-37-13-58-13-19 0-34 6-45 19-10 12-16 30-16 54 0 23 5 40 14 52s23 18 41 18c10 0 19-1 27-3v-38h-43v-51zm300 142h-145V885h145v53h-79v38h73v53h-73v46h79zm108-138h12c23 0 34-10 34-30 0-17-11-25-34-25h-13v56zm0 49v89h-66V885h80c66 0 99 24 99 72 0 28-14 50-41 65l71 106h-75l-52-89h-17z"/><path class="fil0" d="M0 2142h6250v-644H0z"/><path class="fil1" d="M0 2063h6250v-486H0z"/><path class="fil1" d="M4760 1577l-486 486H1624l467-486z"/><path class="fil0" d="M299 1498L0 1797v-216l83-83zm395 0L50 2142H0v-166l478-478zm5556 478v87h-87l49-50zm-5161-478l-644 644H228l645-644zm394 0l-644 644H623l644-644zm395 0l-644 644h-216l644-644zm3092 0l-644 644h-217l644-644zm394 0l-644 644h-216l644-644zm395 0l-644 644h-216l644-644zm395 0l-644 644h-216l644-644zm-3881 0l-644 644h-216l644-644zm3977 83v216l-345 345h-216l79-79zm-3974 256l-11-40c-2-9-5-20-9-34s-6-24-7-30c-1 6-3 15-6 28s-9 39-20 77h52zm26 100l-12-46h-79l-12 46h-72l79-244h88l80 244h-72zm205 0h-65v-190h-60v-54h185v54h-60zm202 0h-66v-190h-59v-54h184v54h-59zm238 0h-144v-244h144v53h-78v38h72v53h-72v46h78zm275 0h-86l-89-171h-1c2 27 3 48 3 62v110h-58v-243h86l89 169h1c-2-25-2-44-2-59v-110h59v243zm160 0h-66v-190h-60v-54h185v54h-59zm94 0h66v-244h-66zm179-122c0 47 16 71 49 71 17 0 29-6 37-17s12-29 12-53-4-42-12-54-20-17-37-17c-33 0-49 24-49 71zm167 0c0 41-10 72-30 93s-49 32-88 32c-38 0-67-11-88-32-20-21-31-53-31-94s10-71 30-93c20-21 50-32 88-32 39 0 68 11 88 32s30 52 30 93zm276 122h-86l-89-171h-2c2 27 3 48 3 62v110h-58v-243h86l89 169h1c-2-25-2-44-2-59v-110h59v243z"/><path class="fil1" d="M0 3554h6250v-486H0z"/><path class="fil0" d="M360 3334l-221 220H0v-77l143-143L0 3190v-122h94z"/><path class="fil0" d="M777 3334l-221 220H340l221-220-266-266h216z"/><path class="fil0" d="M1194 3334l-220 220H758l220-220-265-266h216z"/><path class="fil0" d="M1612 3334l-221 220h-216l221-220-266-266h216z"/><path class="fil0" d="M2029 3334l-220 220h-216l220-220-265-266h216z"/><path class="fil0" d="M2447 3334l-221 220h-216l220-220-265-266h216z"/><path class="fil0" d="M2864 3334l-221 220h-216l221-220-266-266h216z"/><path class="fil0" d="M3281 3334l-220 220h-216l220-220-265-266h216z"/><path class="fil0" d="M3699 3334l-221 220h-216l221-220-266-266h216z"/><path class="fil0" d="M4116 3334l-220 220h-216l220-220-266-266h217z"/><path class="fil0" d="M4533 3334l-220 220h-216l220-220-265-266h216z"/><path class="fil0" d="M4951 3334l-221 220h-216l221-220-266-266h216z"/><path class="fil0" d="M5368 3334l-220 220h-216l220-220-265-266h216z"/><path class="fil0" d="M5786 3334l-221 220h-216l221-220-266-266h216z"/><path class="fil0" d="M6203 3334l-220 220h-216l220-220-266-266h217zm-30 220l77-77v77z"/><path class="fil1" d="M502 3208v194c0 30-24 55-55 55H0v-303h447c30 0 55 25 55 55z"/><path class="fil0" d="M447 3120H0v34h447c30 0 55 25 55 55v194c0 30-24 55-55 55H0v34h447c49 0 88-40 88-88v-194c0-49-40-88-88-88z"/><path class="fil0" d="M87 3345c-6 8-15 13-27 13-24 0-36-17-36-52s12-52 36-52c12 0 21 4 27 13 6 8 9 22 9 39 0 18-3 31-9 39zm38-108c-15-16-36-23-65-23-25 0-45 6-60 19v145c15 13 35 19 60 19 28 0 50-8 65-23 15-16 22-38 22-68s-7-53-22-68zm181-20v81c0 11 1 25 2 43h-1l-65-124h-63v178h43v-81c0-10-1-25-2-45h1l65 126h63v-178h-43z"/><path class="fil1" d="M2530 3457H1197c-30 0-55-24-55-55v-194c0-30 24-55 55-55h1333c30 0 55 24 55 55v194c0 30-24 55-55 55z"/><path class="fil0" d="M2530 3120H1197c-49 0-88 40-88 88v194c0 49 40 88 88 88h1333c49 0 88-40 88-88v-194c0-49-40-88-88-88zm0 34c30 0 55 24 55 55v194c0 30-24 55-55 55H1197c-30 0-55-24-55-55v-194c0-30 24-55 55-55h1333z"/><path class="fil0" d="M1375 3254c-11 0-20 5-27 14-6 9-10 22-10 39 0 34 13 52 39 52 8 0 16-1 23-3s15-5 22-8v41c-15 7-32 10-51 10-27 0-48-8-62-23-14-16-22-38-22-68 0-18 3-35 10-49s17-25 30-32c13-8 28-11 46-11 19 0 38 4 55 13l-15 38c-7-3-13-6-20-8s-14-3-21-3zm173 68l-8-29c-2-7-4-15-7-25s-4-18-5-22c-1 4-2 11-4 21s-7 28-14 56h38zm19 73l-9-33h-58l-9 33h-53l58-179h64l59 179h-53zm224-178v107c0 23-7 41-20 54s-32 19-57 19c-24 0-43-6-56-19-13-12-20-30-20-54v-109h48v105c0 13 2 22 7 27 5 6 12 9 21 9 10 0 17-3 21-8 4-6 7-15 7-28v-104h48zm116 178h-48v-139h-44v-39h135v39h-43zm69 0h48v-178h-48zm131-89c0 35 12 52 36 52 12 0 21-4 27-13 6-8 9-21 9-39s-3-31-9-39c-6-9-15-13-27-13-24 0-36 17-36 52zm123 0c0 30-7 53-22 68-15 16-36 23-65 23-28 0-49-8-64-24s-22-39-22-69 7-52 22-68 36-24 65-24c28 0 50 8 65 23 15 16 22 38 22 68zm202 89h-63l-65-126h-1c2 20 2 35 2 45v80h-43v-178h63l65 124h1c-1-18-2-32-2-43v-81h43v178z"/><path class="fil1" d="M4614 3457H3281c-30 0-55-24-55-55v-194c0-30 24-55 55-55h1333c30 0 55 24 55 55v194c0 30-24 55-55 55z"/><path class="fil0" d="M4614 3120H3281c-49 0-88 40-88 88v194c0 49 40 88 88 88h1333c49 0 88-40 88-88v-194c0-49-40-88-88-88zm0 34c30 0 55 24 55 55v194c0 30-24 55-55 55H3281c-30 0-55-24-55-55v-194c0-30 24-55 55-55h1333z"/><path class="fil0" d="M3458 3254c-11 0-20 5-27 14-6 9-10 22-10 39 0 34 13 52 39 52 8 0 16-1 23-3s15-5 22-8v41c-15 7-32 10-51 10-27 0-48-8-62-23-14-16-22-38-22-68 0-18 3-35 10-49s17-25 30-32c13-8 28-11 46-11 19 0 38 4 55 13l-15 38c-7-3-13-6-20-8s-14-3-21-3zm173 68l-8-29c-2-7-4-15-7-25s-4-18-5-22c-1 4-2 11-4 21s-7 28-14 56h38zm19 73l-9-33h-58l-9 33h-53l58-179h64l59 179h-53zm224-178v107c0 23-7 41-20 54s-32 19-57 19c-24 0-43-6-56-19-13-12-20-30-20-54v-109h48v105c0 13 2 22 7 27 5 6 12 9 21 9 10 0 17-3 21-8 4-6 7-15 7-28v-104h48zm116 178h-48v-139h-44v-39h136v39h-44zm69 0h49v-178h-49zm131-89c0 35 12 52 36 52 12 0 21-4 27-13 6-8 9-21 9-39s-3-31-9-39c-6-9-15-13-27-13-24 0-36 17-36 52zm123 0c0 30-7 53-22 68-15 16-36 23-65 23-28 0-49-8-64-24s-22-39-22-69 7-52 22-68 36-24 65-24c28 0 50 8 65 23 15 16 22 38 22 68zm202 89h-63l-65-126h-1c2 20 2 35 2 45v80h-43v-178h63l65 124h1c-1-18-2-32-2-43v-81h43v178z"/><path class="fil1" d="M6250 3154v303h-886c-30 0-55-24-55-55v-194c0-30 24-55 55-55h886z"/><path class="fil0" d="M5364 3154h886v-34h-886c-49 0-88 40-88 88v194c0 49 40 88 88 88h886v-34h-886c-30 0-55-24-55-55v-194c0-30 24-55 55-55z"/><path class="fil0" d="M5544 3358c-26 0-39-17-39-52 0-17 3-29 10-39 7-9 15-14 27-14 8 0 15 1 21 3 7 2 13 5 20 8l15-38c-18-8-36-13-55-13-18 0-33 4-46 11-13 8-23 18-30 32s-10 30-10 49c0 29 7 52 22 68 14 16 35 23 62 23 19 0 36-3 51-10v-41c-8 3-15 6-22 8s-15 3-23 3zm133-36c8-28 12-47 14-56 2-10 3-16 4-21 1 4 3 12 5 22 3 10 5 19 7 25l8 29h-38zm51-106h-64l-58 179h53l9-33h58l9 33h53l-59-179zm181 1v104c0 13-2 22-7 28-4 6-12 8-21 8s-16-3-21-9-7-15-7-27v-105h-48v108c0 23 7 41 20 54 13 12 32 19 56 19 25 0 44-6 57-19s20-31 20-54v-107h-48zm73 0v39h43v139h49v-139h43v-39zm161 178h48v-178h-48zm107-162v145c-2-1-3-3-5-4-15-16-23-38-23-68s8-53 22-68c2-2 3-3 5-4zM0 5667h6250v-644H0z"/><path class="fil1" d="M0 5588h6250v-486H0z"/><path class="fil0" d="M0 5280v103h20l6-103H0zm19 126c-4-4-9-6-17-6H0v42h2c7 0 13-2 17-6s6-9 6-15c0-7-2-12-6-15z"/><path class="fil0" d="M128 5494H0v-310c13 1 26 7 33 20l130 230c15 27-4 60-35 60z"/><path class="fil1" d="M19 5406c-4-4-9-6-17-6H0v42h2c7 0 13-2 17-6s6-9 6-15c0-7-2-12-6-15zM0 5280v103h20l6-103H0z"/><path class="fil1" d="M180 5424L50 5194c-10-18-29-30-50-30v40c4 0 11 2 15 10l130 230c5 9 2 17 0 20s-7 10-17 10H0v40h128c22 0 41-11 52-30s11-41 1-60z"/><path class="fil0" d="M1541 5422c0-7 2-12 6-15 4-4 10-6 17-6s13 2 17 6 6 9 6 15c0 7-2 12-6 15-4 4-10 6-17 6s-13-2-17-6-6-9-6-15zm41-38h-36l-6-103h47l-6 103z"/><path class="fil0" d="M1690 5494h-259c-31 0-50-33-35-60l130-230c15-27 54-27 70 0l130 230c15 27-4 60-35 60z"/><path class="fil1" d="M1541 5422c0-7 2-12 6-15 4-4 10-6 17-6s13 2 17 6 6 9 6 15c0 7-2 12-6 15-4 4-10 6-17 6s-13-2-17-6-6-9-6-15zm41-38h-36l-6-103h47l-6 103z"/><path class="fil1" d="M1560 5204c-4 0-12 1-17 10l-130 230c-5 9-2 17 0 20s7 10 17 10h259c10 0 15-7 17-10s5-11 0-20l-130-230c-5-9-14-10-17-10zm130 310h-259c-22 0-41-11-52-30s-11-41 0-60l130-230c11-19 30-31 52-31s41 11 52 31l130 230c11 19 10 41 0 60-11 19-30 30-52 30z"/><path class="fil0" d="M3104 5422c0-7 2-12 6-15 4-4 10-6 17-6s13 2 17 6 6 9 6 15c0 7-2 12-6 15-4 4-10 6-17 6s-13-2-17-6-6-9-6-15zm41-38h-36l-6-103h47l-6 103z"/><path class="fil0" d="M3253 5494h-259c-31 0-50-33-35-60l130-230c15-27 54-27 70 0l130 230c15 27-4 60-35 60z"/><path class="fil1" d="M3104 5422c0-7 2-12 6-15 4-4 10-6 17-6s13 2 17 6 6 9 6 15c0 7-2 12-6 15-4 4-10 6-17 6s-13-2-17-6-6-9-6-15zm41-38h-36l-6-103h47l-6 103z"/><path class="fil1" d="M3123 5204c-4 0-12 1-17 10l-130 230c-5 9-2 17 0 20s7 10 17 10h259c10 0 15-7 17-10s5-11 0-20l-130-230c-5-9-14-10-17-10zm130 310h-259c-22 0-41-11-52-30s-11-41 0-60l130-230c11-19 30-31 52-31s41 11 52 31l130 230c11 19 10 41 0 60-11 19-30 30-52 30z"/><path class="fil0" d="M4666 5422c0-7 2-12 6-15 4-4 10-6 17-6s13 2 17 6 6 9 6 15c0 7-2 12-6 15-4 4-10 6-17 6s-13-2-17-6-6-9-6-15zm41-38h-36l-6-103h47l-6 103z"/><path class="fil0" d="M4815 5494h-259c-31 0-50-33-35-60l130-230c15-27 54-27 70 0l130 230c15 27-4 60-35 60z"/><path class="fil1" d="M4666 5422c0-7 2-12 6-15 4-4 10-6 17-6s13 2 17 6 6 9 6 15c0 7-2 12-6 15-4 4-10 6-17 6s-13-2-17-6-6-9-6-15zm41-38h-36l-6-103h47l-6 103z"/><path class="fil1" d="M4685 5204c-4 0-12 1-17 10l-130 230c-5 9-2 17 0 20s7 10 17 10h259c10 0 15-7 17-10s5-11 0-20l-130-230c-5-9-14-10-17-10zm130 310h-259c-22 0-41-11-52-30s-11-41 0-60l130-230c11-19 30-31 52-31s41 11 52 31l130 230c11 19 10 41 0 60-11 19-30 30-52 30z"/><path class="fil0" d="M6250 5184v310h-132c-31 0-50-33-35-60l130-230c8-14 23-21 37-20z"/><path class="fil1" d="M6228 5280l6 103h16v-103h-22zm6 126c-4 4-6 9-6 15 0 7 2 12 6 15s9 5 15 5v-42c-7 0-12 2-15 5z"/><path class="fil1" d="M6231 5214c5-9 14-10 17-10h2v-40h-2c-22 0-41 12-52 31l-130 230c-11 19-10 41 0 60 11 19 30 30 52 30h132v-40h-132c-10 0-16-7-17-10-2-3-5-11 0-20l130-230z"/><path class="fil0" d="M343 5289c-10 0-18 4-24 13-6 8-9 20-9 35 0 31 12 46 35 46 7 0 14-1 21-3s13-4 20-7v37c-13 6-29 9-45 9-24 0-43-7-56-21s-19-34-19-61c0-17 3-31 9-44s15-22 27-29 26-10 41-10c17 0 34 4 50 11l-13 34c-6-3-12-5-18-7s-12-3-19-3zm156 61l-7-26c-2-6-4-13-6-23-2-9-4-16-5-20-1 4-2 10-4 18-2 9-6 25-13 51h34zm17 66l-8-30h-52l-8 30h-48l52-161h58l53 161h-47zm201-160v97c0 21-6 37-18 49s-29 17-51 17-39-6-50-17c-12-11-18-27-18-48v-98h44v94c0 11 2 20 6 25s10 8 19 8 15-3 19-8 6-13 6-25v-94h43zm104 160h-43v-125h-39v-35h121v35h-39zm62 0h44v-160h-44zm118-81c0 31 11 47 32 47 11 0 19-4 24-11 5-8 8-19 8-35s-3-28-8-35c-5-8-13-11-24-11-22 0-33 16-33 47zm110 0c0 27-7 47-20 62-13 14-33 21-58 21s-44-7-58-21c-13-14-20-35-20-62s7-47 20-61 33-21 58-21c26 0 45 7 58 21s20 34 20 62zm182 81h-57l-59-113h-1c1 18 2 31 2 41v72h-38v-160h57l58 111h1c-1-16-2-29-2-39v-73h39v160zm604-127c-10 0-18 4-24 13-6 8-9 20-9 35 0 31 12 46 35 46 7 0 14-1 21-3s13-4 20-7v37c-13 6-29 9-45 9-24 0-43-7-56-21s-19-34-19-61c0-17 3-31 9-44s15-22 27-29 26-10 41-10c17 0 34 4 50 11l-13 34c-6-3-12-5-18-7s-12-3-19-3zm156 61l-7-26c-2-6-4-13-6-23-2-9-4-16-5-20-1 4-2 10-4 18-2 9-6 25-13 51h34zm17 66l-8-30h-52l-8 30h-48l52-161h58l53 161h-47zm201-160v97c0 21-6 37-18 49s-29 17-51 17-39-6-50-17c-12-11-18-27-18-48v-98h44v94c0 11 2 20 6 25s11 8 19 8c9 0 15-3 19-8s6-13 6-25v-94h43zm104 160h-43v-125h-39v-35h121v35h-39zm62 0h44v-160h-44zm118-81c0 31 11 47 32 47 11 0 19-4 24-11 5-8 8-19 8-35s-3-28-8-35c-5-8-13-11-24-11-22 0-33 16-33 47zm110 0c0 27-7 47-20 62-13 14-33 21-58 21s-44-7-58-21c-13-14-20-35-20-62s7-47 20-61 33-21 58-21c26 0 45 7 58 21s20 34 20 62zm182 81h-57l-59-113h-1c1 18 2 31 2 41v72h-38v-160h57l58 111h1c-1-16-2-29-2-39v-73h39v160zm604-127c-10 0-18 4-24 13-6 8-9 20-9 35 0 31 12 46 35 46 7 0 14-1 21-3s13-4 20-7v37c-13 6-29 9-45 9-24 0-43-7-56-21s-19-34-19-61c0-17 3-31 9-44s15-22 27-29 26-10 41-10c17 0 34 4 50 11l-13 34c-6-3-12-5-18-7s-12-3-19-3zm156 61l-7-26c-2-6-4-13-6-23-2-9-4-16-5-20-1 4-2 10-4 18-2 9-6 25-13 51h34zm17 66l-8-30h-52l-8 30h-48l52-161h58l53 161h-47zm201-160v97c0 21-6 37-18 49s-29 17-51 17-39-6-50-17c-12-11-18-27-18-48v-98h44v94c0 11 2 20 6 25s11 8 19 8c9 0 15-3 19-8s6-13 6-25v-94h43zm104 160h-43v-125h-39v-35h121v35h-39zm62 0h44v-160h-44zm118-81c0 31 11 47 32 47 11 0 19-4 24-11 5-8 8-19 8-35s-3-28-8-35c-5-8-13-11-24-11-22 0-33 16-33 47zm110 0c0 27-7 47-20 62-13 14-33 21-58 21s-44-7-58-21c-13-14-20-35-20-62s7-47 20-61 33-21 58-21c26 0 45 7 58 21s20 34 20 62zm182 81h-57l-59-113h-1c1 18 2 31 2 41v72h-38v-160h57l58 111h1c-1-16-2-29-2-39v-73h39v160zm604-127c-10 0-18 4-24 13-6 8-9 20-9 35 0 31 12 46 35 46 7 0 14-1 21-3s13-4 20-7v37c-13 6-29 9-45 9-24 0-43-7-56-21s-19-34-19-61c0-17 3-31 9-44s15-22 27-29 26-10 41-10c17 0 34 4 50 11l-13 34c-6-3-12-5-18-7s-12-3-19-3zm156 61l-7-26c-2-6-4-13-6-23-2-9-4-16-5-20-1 4-2 10-4 18-2 9-6 25-13 51h34zm17 66l-8-30h-52l-8 30h-48l52-161h58l53 161h-47zm201-160v97c0 21-6 37-18 49s-29 17-51 17-39-6-50-17c-12-11-18-27-18-48v-98h44v94c0 11 2 20 6 25s10 8 19 8 15-3 19-8 6-13 6-25v-94h43zm104 160h-43v-125h-39v-35h121v35h-39zm62 0h44v-160h-44zm118-81c0 31 11 47 32 47 11 0 19-4 24-11 5-8 8-19 8-35s-3-28-8-35c-5-8-13-11-24-11-22 0-33 16-33 47zm110 0c0 27-7 47-20 62-13 14-33 21-58 21s-44-7-58-21c-13-14-20-35-20-62s7-47 20-61 33-21 58-21c26 0 45 7 58 21s20 34 20 62zm182 81h-57l-59-113h-1c1 18 2 31 2 41v72h-38v-160h57l58 111h1c-1-16-2-29-2-39v-73h39v160zM0 4753h6250v-950H0z"/><path class="fil1" d="M0 4521h6250v-486H0z"/><path class="fil0" d="M360 4300l-221 221H0v-77l143-144L0 4157v-122h94z"/><path class="fil0" d="M777 4300l-221 221H340l221-221-266-265h216z"/><path class="fil0" d="M1194 4300l-220 221H758l220-221-265-265h216z"/><path class="fil0" d="M1612 4300l-221 221h-216l221-221-266-265h216z"/><path class="fil0" d="M2029 4300l-220 221h-216l220-221-265-265h216z"/><path class="fil0" d="M2447 4300l-221 221h-216l220-221-265-265h216z"/><path class="fil0" d="M2864 4300l-221 221h-216l221-221-266-265h216z"/><path class="fil0" d="M3281 4300l-220 221h-216l220-221-265-265h216z"/><path class="fil0" d="M3699 4300l-221 221h-216l221-221-266-265h216z"/><path class="fil0" d="M4116 4300l-220 221h-216l220-221-266-265h217z"/><path class="fil0" d="M4533 4300l-220 221h-216l220-221-265-265h216z"/><path class="fil0" d="M4951 4300l-221 221h-216l221-221-266-265h216z"/><path class="fil0" d="M5368 4300l-220 221h-216l220-221-265-265h216z"/><path class="fil0" d="M5786 4300l-221 221h-216l221-221-266-265h216z"/><path class="fil0" d="M6203 4300l-220 221h-216l220-221-266-265h217zm47-265v122l-122-122zm-77 486l77-77v77z"/><path class="fil1" d="M0 4627zm82 20l-5-20c-1-4-3-10-4-17-2-7-3-12-3-15 0 3-1 7-3 14-1 6-5 19-10 38h25zm13 49l-6-22H50l-6 22H9l39-119h43l39 119H95zm161 0h-42l-43-84h-1c1 13 2 23 2 30v54h-28v-119h42l43 83c-1-12-1-22-1-29v-54h29v119zm73-70h51v64c-14 5-29 7-46 7-18 0-33-5-43-16s-15-26-15-45 5-34 16-45 26-16 46-16c7 0 15 1 21 2 7 1 12 3 17 5l-10 25c-9-4-18-6-28-6-9 0-17 3-22 9s-8 15-8 26 2 20 7 25c5 6 11 9 20 9 5 0 9 0 13-1v-19h-21v-25zm147 70h-71v-119h71v25h-39v19h36v26h-36v22h39zm53-68h6c11 0 17-5 17-15 0-8-6-12-17-12h-6v27zm0 24v43h-32v-119h39c32 0 49 12 49 35 0 14-7 24-20 32l35 52h-36l-25-43h-8zm480-17c0-11-2-19-6-24s-11-8-20-8h-9v67h7c10 0 17-3 21-9 5-6 7-14 7-26zm33-1c0 20-5 35-16 46s-26 16-46 16h-38v-119h41c19 0 34 5 44 15s16 24 16 42zm82 13l-5-20c-1-4-3-10-4-17-2-7-3-12-3-15 0 3-1 7-3 14-1 6-5 19-10 38h25zm13 49l-6-22h-39l-6 22h-35l39-119h43l39 119h-35zm161 0h-42l-43-84h-1c1 13 2 23 2 30v54h-28v-119h42l43 83c-1-12-1-22-1-29v-54h29v119zm73-70h51v64c-14 5-29 7-46 7-18 0-33-5-43-16s-15-26-15-45 5-34 16-45 26-16 46-16c7 0 15 1 21 2 7 1 12 3 17 5l-10 25c-9-4-18-6-28-6-9 0-17 3-22 9s-8 15-8 26 2 20 7 25c5 6 11 9 20 9 5 0 9 0 13-1v-19h-21v-25zm146 70h-70v-119h70v25h-38v19h35v26h-35v22h38zm53-68h6c11 0 17-5 17-15 0-8-6-12-17-12h-6v27zm0 24v43h-32v-119h39c32 0 49 12 49 35 0 14-7 24-20 32l35 52h-36l-25-43h-8zm480-17c0-11-2-19-6-24s-11-8-20-8h-9v67h7c10 0 17-3 21-9 5-6 7-14 7-26zm33-1c0 20-5 35-16 46s-26 16-46 16h-38v-119h41c19 0 34 5 44 15s16 24 16 42zm82 13l-5-20c-1-4-3-10-4-17-2-7-3-12-3-15 0 3-1 7-3 14-1 6-5 19-10 38h25zm13 49l-6-22h-39l-6 22h-35l39-119h43l39 119h-35zm161 0h-42l-43-84h-1c1 13 2 23 2 30v54h-28v-119h42l43 83c-1-12-1-22-1-29v-54h29v119zm74-70h51v64c-14 5-29 7-46 7-18 0-33-5-43-16s-15-26-15-45 5-34 16-45 26-16 46-16c7 0 15 1 21 2 7 1 12 3 17 5l-10 25c-9-4-18-6-28-6-9 0-17 3-22 9s-8 15-8 26 2 20 7 25c5 6 11 9 20 9 5 0 9 0 13-1v-19h-21v-25zm146 70h-71v-119h71v25h-39v19h36v26h-36v22h39zm53-68h6c11 0 17-5 17-15 0-8-6-12-17-12h-6v27zm0 24v43h-32v-119h39c32 0 49 12 49 35 0 14-7 24-20 32l35 52h-36l-25-43h-8zm480-17c0-11-2-19-6-24s-11-8-20-8h-9v67h7c10 0 17-3 21-9 5-6 7-14 7-26zm33-1c0 20-5 35-16 46s-26 16-46 16h-38v-119h41c19 0 34 5 44 15s16 24 16 42zm82 13l-5-20c-1-4-3-10-4-17-2-7-3-12-3-15 0 3-1 7-3 14-1 6-5 19-10 38h25zm13 49l-6-22h-39l-6 22h-35l39-119h43l39 119h-35zm161 0h-42l-43-84h-1c1 13 2 23 2 30v54h-28v-119h42l43 83c-1-12-1-22-1-29v-54h29v119zm73-70h51v64c-14 5-29 7-46 7-18 0-33-5-43-16s-15-26-15-45 5-34 16-45 26-16 46-16c7 0 15 1 21 2 7 1 12 3 17 5l-10 25c-9-4-18-6-28-6-9 0-17 3-22 9s-8 15-8 26 2 20 7 25c5 6 11 9 20 9 5 0 9 0 13-1v-19h-21v-25zm147 70h-71v-119h71v25h-39v19h36v26h-36v22h39zm53-68h6c11 0 17-5 17-15 0-8-6-12-17-12h-6v27zm0 24v43h-32v-119h39c32 0 49 12 49 35 0 14-7 24-20 32l35 52h-36l-25-43h-8zm480-17c0-11-2-19-6-24s-11-8-20-8h-9v67h7c10 0 17-3 21-9 5-6 7-14 7-26zm33-1c0 20-5 35-16 46s-26 16-46 16h-38v-119h41c19 0 34 5 44 15s16 24 16 42zm82 13l-5-20c-1-4-3-10-4-17-2-7-3-12-3-15 0 3-1 7-3 14-1 6-5 19-10 38h25zm13 49l-6-22h-39l-6 22h-35l39-119h43l39 119h-35zm161 0h-42l-43-84h-1c1 13 2 23 2 30v54h-28v-119h42l43 83c-1-12-1-22-1-29v-54h29v119zm73-70h51v64c-14 5-29 7-46 7-18 0-33-5-43-16s-15-26-15-45 5-34 16-45 26-16 46-16c7 0 15 1 21 2 7 1 12 3 17 5l-10 25c-9-4-18-6-28-6-9 0-17 3-22 9s-8 15-8 26 2 20 7 25c5 6 11 9 20 9 5 0 9 0 13-1v-19h-21v-25zm146 70h-70v-119h70v25h-38v19h35v26h-35v22h38zm53-68h6c11 0 17-5 17-15 0-8-6-12-17-12h-6v27zm0 24v43h-32v-119h39c32 0 49 12 49 35 0 14-7 24-20 32l35 52h-36l-25-43h-8zm480-17c0-11-2-19-6-24s-11-8-20-8h-9v67h7c10 0 17-3 21-9 5-6 7-14 7-26zm33-1c0 20-5 35-16 46s-26 16-46 16h-38v-119h41c19 0 34 5 44 15s16 24 16 42zm82 13l-5-20c-1-4-3-10-4-17-2-7-3-12-3-15 0 3-1 7-3 14-1 6-5 19-10 38h25zm13 49l-6-22h-39l-6 22h-35l39-119h43l39 119h-35zm161 0h-42l-43-84h-1c1 13 2 23 2 30v54h-28v-119h42l43 83c-1-12-1-22-1-29v-54h29v119zm74-70h51v64c-14 5-29 7-46 7-18 0-33-5-43-16s-15-26-15-45 5-34 16-45 26-16 46-16c7 0 15 1 21 2 7 1 12 3 17 5l-10 25c-9-4-18-6-28-6-9 0-17 3-22 9s-8 15-8 26 2 20 7 25c5 6 11 9 20 9 5 0 9 0 13-1v-19h-21v-25zm146 70h-71v-119h71v25h-39v19h36v26h-36v22h39zm53-68h6c11 0 17-5 17-15 0-8-6-12-17-12h-6v27zm0 24v43h-32v-119h39c32 0 49 12 49 35 0 14-7 24-20 32l35 52h-36l-25-43h-8zm480-17c0-11-2-19-6-24s-11-8-20-8h-9v67h7c10 0 17-3 21-9 5-6 7-14 7-26zm33 6v-14c-1-15-6-27-15-36-10-10-25-15-44-15h-41v119h38c20 0 35-5 46-16 10-9 15-22 16-39zM801 3920c0 24-19 43-43 43s-43-19-43-43 19-43 43-43 43 19 43 43zm1060 0c0 24-19 43-43 43s-43-19-43-43 19-43 43-43 43 19 43 43zm1033 0c0 24-19 43-43 43s-43-19-43-43 19-43 43-43 43 19 43 43zm1041 0c0 24-19 43-43 43s-43-19-43-43 19-43 43-43 43 19 43 43zm1042 0c0 24-19 43-43 43s-43-19-43-43 19-43 43-43 43 19 43 43zm1041 0c0 24-19 43-43 43s-43-19-43-43 19-43 43-43 43 19 43 43zM801 4642c0 24-19 43-43 43s-43-19-43-43 19-43 43-43 43 19 43 43zm1060 0c0 24-19 43-43 43s-43-19-43-43 19-43 43-43 43 19 43 43zm1033 0c0 24-19 43-43 43s-43-19-43-43 19-43 43-43 43 19 43 43zm1041 0c0 24-19 43-43 43s-43-19-43-43 19-43 43-43 43 19 43 43zm1042 0c0 24-19 43-43 43s-43-19-43-43 19-43 43-43 43 19 43 43zm1041 0c0 24-19 43-43 43s-43-19-43-43 19-43 43-43 43 19 43 43zM0 3906zm82 20l-5-20c-1-4-3-10-4-17-2-7-3-12-3-15 0 3-1 7-3 14-1 6-5 19-10 38h25zm13 49l-6-22H50l-6 22H9l39-119h43l39 119H95zm161-1h-42l-43-84h-1c1 13 2 23 2 30v54h-28v-119h42l43 83c-1-12-1-22-1-29v-54h29v119zm73-69h51v64c-14 5-29 7-46 7-18 0-33-5-43-16s-15-26-15-46c0-19 5-34 16-45s26-16 46-16c7 0 15 1 21 2 7 1 12 3 17 5l-10 25c-9-4-18-6-28-6-9 0-17 3-22 9s-8 15-8 26 2 20 7 25c5 6 11 9 20 9 5 0 9 0 13-1v-19h-21v-25zm147 69h-71v-119h71v26h-39v19h36v26h-36v22h39zm53-67h6c11 0 17-5 17-15 0-8-6-12-17-12h-6v27zm0 24v43h-32v-119h39c32 0 49 12 49 35 0 14-7 24-20 32l35 52h-36l-25-43h-8zm480-17c0-11-2-19-6-24s-11-8-20-8h-9v67h7c10 0 17-3 21-9 5-6 7-14 7-26zm33-1c0 20-5 35-16 46s-26 16-46 16h-38v-119h41c19 0 34 5 44 15s16 24 16 42zm82 13l-5-20c-1-4-3-10-4-17-2-7-3-12-3-15 0 3-1 7-3 14-1 6-5 19-10 38h25zm13 49l-6-22h-39l-6 22h-35l39-119h43l39 119h-35zm161-1h-42l-43-84h-1c1 13 2 23 2 30v54h-28v-119h42l43 83c-1-12-1-22-1-29v-54h29v119zm73-69h51v64c-14 5-29 7-46 7-18 0-33-5-43-16s-15-26-15-46c0-19 5-34 16-45s26-16 46-16c7 0 15 1 21 2 7 1 12 3 17 5l-10 25c-9-4-18-6-28-6-9 0-17 3-22 9s-8 15-8 26 2 20 7 25c5 6 11 9 20 9 5 0 9 0 13-1v-19h-21v-25zm146 69h-70v-119h70v26h-38v19h35v26h-35v22h38zm53-67h6c11 0 17-5 17-15 0-8-6-12-17-12h-6v27zm0 24v43h-32v-119h39c32 0 49 12 49 35 0 14-7 24-20 32l35 52h-36l-25-43h-8zm480-17c0-11-2-19-6-24s-11-8-20-8h-9v67h7c10 0 17-3 21-9 5-6 7-14 7-26zm33-1c0 20-5 35-16 46s-26 16-46 16h-38v-119h41c19 0 34 5 44 15s16 24 16 42zm82 13l-5-20c-1-4-3-10-4-17-2-7-3-12-3-15 0 3-1 7-3 14-1 6-5 19-10 38h25zm13 49l-6-22h-39l-6 22h-35l39-119h43l39 119h-35zm161-1h-42l-43-84h-1c1 13 2 23 2 30v54h-28v-119h42l43 83c-1-12-1-22-1-29v-54h29v119zm74-69h51v64c-14 5-29 7-46 7-18 0-33-5-43-16s-15-26-15-46c0-19 5-34 16-45s26-16 46-16c7 0 15 1 21 2 7 1 12 3 17 5l-10 25c-9-4-18-6-28-6-9 0-17 3-22 9s-8 15-8 26 2 20 7 25c5 6 11 9 20 9 5 0 9 0 13-1v-19h-21v-25zm146 69h-71v-119h71v26h-39v19h36v26h-36v22h39zm53-67h6c11 0 17-5 17-15 0-8-6-12-17-12h-6v27zm0 24v43h-32v-119h39c32 0 49 12 49 35 0 14-7 24-20 32l35 52h-36l-25-43h-8zm480-17c0-11-2-19-6-24s-11-8-20-8h-9v67h7c10 0 17-3 21-9 5-6 7-14 7-26zm33-1c0 20-5 35-16 46s-26 16-46 16h-38v-119h41c19 0 34 5 44 15s16 24 16 42zm82 13l-5-20c-1-4-3-10-4-17-2-7-3-12-3-15 0 3-1 7-3 14-1 6-5 19-10 38h25zm13 49l-6-22h-39l-6 22h-35l39-119h43l39 119h-35zm161-1h-42l-43-84h-1c1 13 2 23 2 30v54h-28v-119h42l43 83c-1-12-1-22-1-29v-54h29v119zm73-69h51v64c-14 5-29 7-46 7-18 0-33-5-43-16s-15-26-15-46c0-19 5-34 16-45s26-16 46-16c7 0 15 1 21 2 7 1 12 3 17 5l-10 25c-9-4-18-6-28-6-9 0-17 3-22 9s-8 15-8 26 2 20 7 25c5 6 11 9 20 9 5 0 9 0 13-1v-19h-21v-25zm147 69h-71v-119h71v26h-39v19h36v26h-36v22h39zm53-67h6c11 0 17-5 17-15 0-8-6-12-17-12h-6v27zm0 24v43h-32v-119h39c32 0 49 12 49 35 0 14-7 24-20 32l35 52h-36l-25-43h-8zm480-17c0-11-2-19-6-24s-11-8-20-8h-9v67h7c10 0 17-3 21-9 5-6 7-14 7-26zm33-1c0 20-5 35-16 46s-26 16-46 16h-38v-119h41c19 0 34 5 44 15s16 24 16 42zm82 13l-5-20c-1-4-3-10-4-17-2-7-3-12-3-15 0 3-1 7-3 14-1 6-5 19-10 38h25zm13 49l-6-22h-39l-6 22h-35l39-119h43l39 119h-35zm161-1h-42l-43-84h-1c1 13 2 23 2 30v54h-28v-119h42l43 83c-1-12-1-22-1-29v-54h29v119zm73-69h51v64c-14 5-29 7-46 7-18 0-33-5-43-16s-15-26-15-46c0-19 5-34 16-45s26-16 46-16c7 0 15 1 21 2 7 1 12 3 17 5l-10 25c-9-4-18-6-28-6-9 0-17 3-22 9s-8 15-8 26 2 20 7 25c5 6 11 9 20 9 5 0 9 0 13-1v-19h-21v-25zm146 69h-70v-119h70v26h-38v19h35v26h-35v22h38zm53-67h6c11 0 17-5 17-15 0-8-6-12-17-12h-6v27zm0 24v43h-32v-119h39c32 0 49 12 49 35 0 14-7 24-20 32l35 52h-36l-25-43h-8zm480-17c0-11-2-19-6-24s-11-8-20-8h-9v67h7c10 0 17-3 21-9 5-6 7-14 7-26zm33-1c0 20-5 35-16 46s-26 16-46 16h-38v-119h41c19 0 34 5 44 15s16 24 16 42zm82 13l-5-20c-1-4-3-10-4-17-2-7-3-12-3-15 0 3-1 7-3 14-1 6-5 19-10 38h25zm13 49l-6-22h-39l-6 22h-35l39-119h43l39 119h-35zm161-1h-42l-43-84h-1c1 13 2 23 2 30v54h-28v-119h42l43 83c-1-12-1-22-1-29v-54h29v119zm74-69h51v64c-14 5-29 7-46 7-18 0-33-5-43-16s-15-26-15-46c0-19 5-34 16-45s26-16 46-16c7 0 15 1 21 2 7 1 12 3 17 5l-10 25c-9-4-18-6-28-6-9 0-17 3-22 9s-8 15-8 26 2 20 7 25c5 6 11 9 20 9 5 0 9 0 13-1v-19h-21v-25zm146 69h-71v-119h71v26h-39v19h36v26h-36v22h39zm53-67h6c11 0 17-5 17-15 0-8-6-12-17-12h-6v27zm0 24v43h-32v-119h39c32 0 49 12 49 35 0 14-7 24-20 32l35 52h-36l-25-43h-8zm480-17c0-11-2-19-6-24s-11-8-20-8h-9v67h7c10 0 17-3 21-9 5-6 7-14 7-26zm33 6v-14c-1-15-6-27-15-36-10-10-25-15-44-15h-41v119h38c20 0 35-5 46-16 10-9 15-22 16-39z"/><path class="fil0" d="M0 2841h6250v-486H0z"/><path class="fil1" d="M867 2598c0 38-31 69-69 69s-69-31-69-69 31-69 69-69 69 31 69 69zm3125 0c0 38-31 69-69 69s-69-31-69-69 31-69 69-69 69 31 69 69zM15 2531l-13 34c-1 0-1-1-2-1v-39c5 2 10 3 15 6zm-7 107v36c-3 1-5 2-8 3v-36c3-1 5-2 8-3zm101 43H66v-124H27v-35h121v35h-39zm61 0h43v-159h-43zm117-80c0 31 11 46 32 46 11 0 19-4 24-11s8-19 8-35-3-28-8-35c-5-8-13-11-24-11-21 0-32 15-32 46zm109 0c0 27-7 47-20 61s-32 21-58 21c-25 0-44-7-57-21s-20-34-20-61c0-26 7-47 20-61s32-21 58-21c25 0 44 7 57 21s20 34 20 61zm180 80h-56l-58-112h-1c1 18 2 31 2 40v72h-38v-159h56l58 110h1c-1-16-2-29-2-39v-72h38v159zm3772-159v95c0 21-6 37-18 48s-29 17-51 17-38-6-50-17-17-27-17-48v-96h43v93c0 11 2 19 6 24s10 8 19 8 15-3 19-8 6-13 6-25v-93h43zm185 159h-56l-58-112h-1c1 18 2 31 2 40v72h-38v-159h56l58 110h1c-1-16-2-29-2-39v-72h38v159zm124-81c0-15-3-25-9-32s-14-11-26-11h-12v89h10c13 0 23-4 29-11 6-8 9-19 9-35zm44-2c0 26-7 47-22 61s-35 21-61 21h-51v-159h55c25 0 45 7 59 20s21 32 21 56zm123 83h-94v-159h94v34h-51v25h47v35h-47v30h51zm71-90h8c15 0 22-7 22-20 0-11-7-16-22-16h-8v36zm0 32v58h-43v-159h52c43 0 65 16 65 47 0 18-9 33-27 43l46 69h-49l-34-58h-11zm236-68c-10 0-18 4-24 13-6 8-9 20-9 35 0 31 12 46 35 46 7 0 14-1 20-3 7-2 13-4 20-7v36c-13 6-28 9-45 9-24 0-42-7-55-21s-19-34-19-60c0-16 3-31 9-43s15-22 27-29 25-10 41-10c17 0 34 4 49 11l-13 34c-6-3-12-5-18-7s-12-3-19-3zm112 46c0 31 11 46 32 46 11 0 19-4 24-11s8-19 8-35-3-28-8-35c-5-8-13-11-24-11-21 0-32 15-32 46zm109 0c0 27-7 47-20 61s-32 21-58 21c-25 0-44-7-57-21s-20-34-20-61c0-26 7-47 20-61s32-21 58-21c25 0 44 7 57 21s20 34 20 61zm180 80h-56l-58-112h-1c1 18 2 31 2 40v72h-38v-159h56l58 110h1c-1-16-2-29-2-39v-72h38v159zm138-49c0 10-2 19-7 26-5 8-12 14-22 18-9 4-20 6-33 6-11 0-19-1-27-2-7-1-15-4-22-8v-38c8 4 17 7 26 10 9 2 17 4 24 4 6 0 11-1 14-3s4-5 4-9c0-2-1-4-2-6s-3-3-6-5-10-5-21-10c-10-5-18-9-23-14-5-4-9-9-12-15s-4-12-4-20c0-15 5-26 16-34s25-12 44-12c16 0 33 4 50 11l-13 33c-15-7-28-10-38-10-6 0-10 1-12 3-3 2-4 4-4 7s2 6 5 8 12 7 26 13 23 13 28 20 8 16 8 27zm95 49h-43v-124h-39v-35h120v35h-38zm104-90h8c15 0 22-7 22-20 0-11-7-16-22-16h-8v36zm0 32v58h-43v-159h52c43 0 65 16 65 47 0 18-9 33-27 43l46 69h-49l-34-58h-11zm242-101v95c0 21-6 37-18 48s-29 17-51 17-38-6-50-17-17-27-17-48v-96h43v93c0 11 2 19 6 24s10 8 19 8 15-3 19-8 6-13 6-25v-93h43zm104 33c7 0 13 1 19 3 5 2 10 4 16 6v-39c-11-3-23-5-34-5-16 0-29 3-41 10s-21 16-27 29c-6 12-9 27-9 43 0 26 6 46 19 60s31 21 55 21c13 0 26-2 37-6v-36c-4 1-8 3-12 4-7 2-13 3-20 3-23 0-35-15-35-46 0-15 3-26 9-35 6-8 14-13 24-13zm-5027-33v95c0 21-6 37-18 48s-29 17-51 17-38-6-50-17-17-27-17-48v-96h43v93c0 11 2 19 6 24s10 8 19 8 15-3 19-8 6-13 6-25v-93h43zm184 159h-56l-58-112h-1c1 18 2 31 2 40v72h-38v-159h56l58 110h1c-1-16-2-29-2-39v-72h38v159zm125-81c0-15-3-25-9-32s-14-11-26-11h-12v89h10c13 0 23-4 29-11 6-8 9-19 9-35zm44-2c0 26-7 47-22 61s-35 21-61 21h-51v-159h55c25 0 45 7 59 20s21 32 21 56zm123 83h-94v-159h94v34h-51v25h47v35h-47v30h51zm71-90h8c15 0 22-7 22-20 0-11-7-16-22-16h-8v36zm0 32v58h-43v-159h52c43 0 65 16 65 47 0 18-9 33-27 43l46 69h-49l-34-58h-11zm235-68c-10 0-18 4-24 13-6 8-9 20-9 35 0 31 12 46 35 46 7 0 14-1 20-3 7-2 13-4 20-7v36c-13 6-28 9-45 9-24 0-42-7-55-21s-19-34-19-60c0-16 3-31 9-43s15-22 27-29 25-10 41-10c17 0 34 4 49 11l-13 34c-6-3-12-5-18-7s-12-3-19-3zm113 46c0 31 11 46 32 46 11 0 19-4 24-11s8-19 8-35-3-28-8-35c-5-8-13-11-24-11-21 0-32 15-32 46zm109 0c0 27-7 47-20 61s-32 21-58 21c-25 0-44-7-57-21s-20-34-20-61c0-26 7-47 20-61s32-21 58-21c25 0 44 7 57 21s20 34 20 61zm180 80h-56l-58-112h-1c1 18 2 31 2 40v72h-38v-159h56l58 110h1c-1-16-2-29-2-39v-72h38v159zm138-49c0 10-2 19-7 26-5 8-12 14-22 18-9 4-20 6-33 6-11 0-19-1-27-2-7-1-15-4-22-8v-38c8 4 17 7 26 10 9 2 17 4 24 4 6 0 11-1 14-3s4-5 4-9c0-2-1-4-2-6s-3-3-6-5-10-5-21-10c-10-5-18-9-23-14-5-4-9-9-12-15s-4-12-4-20c0-15 5-26 16-34s25-12 44-12c16 0 33 4 50 11l-13 33c-15-7-28-10-38-10-6 0-10 1-12 3-3 2-4 4-4 7s2 6 5 8 12 7 26 13 23 13 28 20 8 16 8 27zm95 49h-43v-124h-39v-35h120v35h-38zm104-90h8c15 0 22-7 22-20 0-11-7-16-22-16h-8v36zm0 32v58h-43v-159h52c43 0 65 16 65 47 0 18-9 33-27 43l46 69h-49l-34-58h-11zm242-101v95c0 21-6 37-18 48s-29 17-51 17-38-6-50-17-17-27-17-48v-96h43v93c0 11 2 19 6 24s10 8 19 8 15-3 19-8 6-13 6-25v-93h43zm104 33c-10 0-18 4-24 13-6 8-9 20-9 35 0 31 12 46 35 46 7 0 14-1 20-3 7-2 13-4 20-7v36c-13 6-28 9-45 9-24 0-42-7-55-21s-19-34-19-60c0-16 3-31 9-43s15-22 27-29 25-10 41-10c17 0 34 4 49 11l-13 34c-6-3-12-5-18-7s-12-3-19-3zm144 126h-43v-124h-39v-35h120v35h-38zm61 0h43v-159h-43zm117-80c0 31 11 46 32 46 11 0 19-4 24-11s8-19 8-35-3-28-8-35c-5-8-13-11-24-11-21 0-32 15-32 46zm109 0c0 27-7 47-20 61s-32 21-58 21c-25 0-44-7-57-21s-20-34-20-61c0-26 7-47 20-61s32-21 58-21c25 0 44 7 57 21s20 34 20 61zm180 80h-56l-58-112h-1c1 18 2 31 2 40v72h-38v-159h56l58 110h1c-1-16-2-29-2-39v-72h38v159z"/></g></svg>