<svg xmlns="http://www.w3.org/2000/svg" width="240" height="336" viewBox="0 0 63.5 88.899999"><path d="M23.173 56.334c.44 1.024.84.943 1.29.223l.678-1.083c.14-.223.207-.495.446.182l4.639 13.155c.419 1.188.765.703.554-.298L26.894 50.44c-.196-.91-.72-1.118-1.075-.628l-.471.644c-.26.359-.675.785-.827-.173l-.728-4.58c-.195-1.23-.152-1.638.314-2.622 1.902-4.007 4.393-6.494 6.913-8.905.547-.523 1.617-1.027 1.728.14.065.686.702 1.722 1.645 2.217 1.37.719 2.535 1.782 2.968 2.216a2.94 2.94 0 0 1 .86 2.505l-.372 2.803c-.208 1.593.261 2.558 1.1 3.167l3.109 2.257c.18.131.299.32.273.595-.04.428-.225.713-.563.728-.375.016-.5-.403-.47-.53.048-.217.169-.415-.042-.57l-1.505-1.108c-.368-.27-.606-.316-.794.116l-1.025 2.348c-.764.003-1.424.03-1.91.132-2.622.55-4.37 4.447-4.457 4.912-.42 2.257.47 1.503 1.166.694.825-.959 1.85-1.2 3.291-1.364l-2.844 6.54c-.269.616.063 1.053.488.38l4.903-6.986c.506.1 1.126.26 1.835.438l-2.588 5.697c-.185.406-.533 1.056.356 1.017.73-.032 1.366-.285 2-.538l-2.075 5.185c-.442 1.104.258.762.695.14L44.1 59.75c.525-.748.058-.706-.48-.587l-1.058.231c-.748.165-.362-.265 0-.678.653-.745.958-1.495 1.307-2.24.28.03.562.057.851.074 3.627.21 8.208-1.097 10.7-5.176 4.127-6.757.01-16.72-2.506-19.025-.428-.392-.787-.59-1.397-.43-.986.257-2.905.343-3.357.058-.46-.29-1.672-2.046-2.663-2.621-1.008-3.608-2.914-7.576-6.217-9.012-1.546-.672-2.933-.953-4.2-.951-2.79.004-5.015 1.37-7.111 2.951-3.206 2.418-7.681 7.806-7.681 7.806-.337.346-.323.543-.125.735.375.363.325.949.024 1.283-.28.31-.71.378-1.014.35-.907-.08-1.739-1.292-3.136-1.498-1.74-.256-2.608.555-2.608.555s.055-1.332-.278-2.719c-.333-1.387-1.1-3.13-2.171-3.102-.639.016-.797 5.322-.797 5.322s-1.25 2.636-1.305 2.913c-.055.278-.166 3.274-.166 3.69 0 .417-.583 2.11-.666 2.83-.083.722-.17 2.115-.199 2.448-.027.333-.384.744-.44 1.27-.055.528.193 1.616.084 1.832-.174.344-1.165.638-1.165.999 0 .36.471.805 1.165.721.694-.083 1.027-.527 1.221-.86.194-.333.166-.832.305-.999.139-.166 1.14-.34 1.36-.527.314-.267 1.581-2.969 1.776-3.024.194-.056 1.114.059 1.558.059.444 0 1.494-.17 1.494-.17s.138.694.804.971 1.55.059 1.55.059zM46.084 31.91c1.13.404 1.755 1.42 2.44 2.439 1.416 2.106 3.42 9.28.553 13.61-.683 1.032-1.641 1.719-2.728 2.182.178-.391.344-.84.347-1.182.013-1.308-1.686-1.84-1.77-4.78-.085-3.016 1.519-4.319 1.522-8.904 0-.767-.11-1.968-.364-3.365zm.265 9.64c-1.123 1.432-.878 3.49.132 4.771l1.497-2.588zm-28.443 4.21l.116 4.158-3.886-1.885c-.352-.17-.755-.152-.447.554l5.35 12.262c.067.153.409.534.595.487.201-.05.134-.529.058-.802l-2.042-7.317c-.103-.37-.07-.52.314-.339 0 0 1.253.875 1.827.868.389-.005.884-.457 1.034-.686.053-.081.017-.556-.033-.67z" opacity=".5"/></svg>